<svg width="32" height="32" viewBox="0 0 32 32" fill="none" xmlns="http://www.w3.org/2000/svg">
<rect width="32" height="32" fill="#1E1E1E"/>
<rect width="1453" height="2091" transform="translate(-602 -134)" fill="white"/>
<rect x="-513.5" y="-40.5" width="1277" height="1615" stroke="#8C8C8C"/>
<circle cx="16" cy="16" r="16" fill="#263238"/>
<path fill-rule="evenodd" clip-rule="evenodd" d="M22.7918 11.1789C23.05 11.4365 23.0709 11.8772 22.8385 12.1634L16.3489 20.1539C15.5316 21.1603 14.1478 21.2857 13.1937 20.4399L10.2361 17.8179C9.96482 17.5774 9.92084 17.1387 10.1379 16.8381C10.3549 16.5375 10.7507 16.4888 11.022 16.7292L13.9796 19.3513C14.4133 19.7357 15.0423 19.6787 15.4138 19.2212L21.9034 11.2308C22.1358 10.9446 22.5335 10.9214 22.7918 11.1789Z" fill="white"/>
</svg>
