<svg width="34" height="34" viewBox="0 0 34 34" fill="none" xmlns="http://www.w3.org/2000/svg">
<path d="M34 30.2222V27.1132C34 25.5685 33.0595 24.1794 31.6253 23.6057L27.783 22.0688C25.9587 21.3391 23.8797 22.1295 23.001 23.8869L22.6667 24.5556C22.6667 24.5556 17.9444 23.6111 14.1667 19.8333C10.3889 16.0556 9.44444 11.3333 9.44444 11.3333L10.1131 10.999C11.8705 10.1203 12.6609 8.04126 11.9312 6.21701L10.3943 2.37475C9.82064 0.940482 8.43151 0 6.88676 0H3.77778C1.69137 0 0 1.69137 0 3.77778C0 20.469 13.531 34 30.2222 34C32.3086 34 34 32.3086 34 30.2222Z" fill="#141D3A"/>
</svg>
