<svg width="41" height="39" viewBox="0 0 41 39" fill="none" xmlns="http://www.w3.org/2000/svg">
<path d="M6.28125 15.8437H5.5C5.16848 15.8437 4.85054 15.9722 4.61612 16.2007C4.3817 16.4293 4.25 16.7393 4.25 17.0625V18.2812C4.25 18.6045 4.3817 18.9145 4.61612 19.143C4.85054 19.3716 5.16848 19.5 5.5 19.5H6.74531C6.73444 22.787 6.3163 26.0608 5.5 29.25H15.5C14.6837 26.0608 14.2656 22.787 14.2547 19.5H15.5C15.8315 19.5 16.1495 19.3716 16.3839 19.143C16.6183 18.9145 16.75 18.6045 16.75 18.2812V17.0625C16.75 16.7393 16.6183 16.4293 16.3839 16.2007C16.1495 15.9722 15.8315 15.8437 15.5 15.8437H14.7188L17.3664 8.95934C17.4374 8.77483 17.4614 8.57628 17.4365 8.38072C17.4115 8.18517 17.3383 7.99843 17.2231 7.83651C17.1079 7.6746 16.9541 7.54234 16.775 7.45108C16.5958 7.35981 16.3967 7.31226 16.1945 7.3125H11.75V4.875H13.625C13.7908 4.875 13.9497 4.8108 14.0669 4.69652C14.1842 4.58224 14.25 4.42724 14.25 4.26562V3.04688C14.25 2.88526 14.1842 2.73026 14.0669 2.61598C13.9497 2.5017 13.7908 2.4375 13.625 2.4375H11.75V0.609375C11.75 0.447759 11.6842 0.292762 11.5669 0.178482C11.4497 0.0642018 11.2908 0 11.125 0L9.875 0C9.70924 0 9.55027 0.0642018 9.43306 0.178482C9.31585 0.292762 9.25 0.447759 9.25 0.609375V2.4375H7.375C7.20924 2.4375 7.05027 2.5017 6.93306 2.61598C6.81585 2.73026 6.75 2.88526 6.75 3.04688V4.26562C6.75 4.42724 6.81585 4.58224 6.93306 4.69652C7.05027 4.8108 7.20924 4.875 7.375 4.875H9.25V7.3125H4.80391C4.60179 7.31226 4.40262 7.35981 4.22348 7.45108C4.04435 7.54234 3.89058 7.6746 3.77536 7.83651C3.66015 7.99843 3.58692 8.18517 3.56195 8.38072C3.53699 8.57628 3.56104 8.77483 3.63203 8.95934L6.28125 15.8437ZM19.8094 35.0071L18 34.125V32.9062C18 32.583 17.8683 32.273 17.6339 32.0445C17.3995 31.8159 17.0815 31.6875 16.75 31.6875H4.25C3.91848 31.6875 3.60054 31.8159 3.36612 32.0445C3.1317 32.273 3 32.583 3 32.9062V34.125L1.19141 35.0071C0.983705 35.1082 0.809004 35.2638 0.686884 35.4563C0.564764 35.6488 0.500051 35.8707 0.5 36.0971V37.7812C0.5 38.1045 0.631696 38.4145 0.866117 38.643C1.10054 38.8716 1.41848 39 1.75 39H19.25C19.5815 39 19.8995 38.8716 20.1339 38.643C20.3683 38.4145 20.5 38.1045 20.5 37.7812V36.0971C20.5 35.8708 20.4354 35.649 20.3134 35.4565C20.1915 35.2639 20.0169 35.1083 19.8094 35.0071ZM27.057 22.9887L26.8 29.25H36.7L36.443 22.9879L38.3648 21.4043C38.6425 21.1752 38.8656 20.8898 39.0185 20.568C39.1713 20.2462 39.2504 19.8958 39.25 19.5411V15.082C39.25 14.9608 39.2006 14.8446 39.1127 14.7589C39.0248 14.6732 38.9056 14.625 38.7812 14.625H36.7203C36.596 14.625 36.4768 14.6732 36.3889 14.7589C36.3009 14.8446 36.2516 14.9608 36.2516 15.082V17.0625H34.3211V15.082C34.3211 14.9608 34.2717 14.8446 34.1838 14.7589C34.0959 14.6732 33.9767 14.625 33.8523 14.625H29.6484C29.5241 14.625 29.4049 14.6732 29.317 14.7589C29.2291 14.8446 29.1797 14.9608 29.1797 15.082V17.0625H27.2492V15.082C27.2492 14.9608 27.1998 14.8446 27.1119 14.7589C27.024 14.6732 26.9048 14.625 26.7805 14.625H24.7188C24.5944 14.625 24.4752 14.6732 24.3873 14.7589C24.2994 14.8446 24.25 14.9608 24.25 15.082V19.5457C24.2506 19.8998 24.3303 20.2494 24.4836 20.5704C24.6369 20.8914 24.86 21.1759 25.1375 21.4043L27.057 22.9887ZM30.5 23.1562C30.5 22.833 30.6317 22.523 30.8661 22.2945C31.1005 22.0659 31.4185 21.9375 31.75 21.9375C32.0815 21.9375 32.3995 22.0659 32.6339 22.2945C32.8683 22.523 33 22.833 33 23.1562V25.5938H30.5V23.1562ZM39.8094 35.0071L38 34.125V32.9062C38 32.583 37.8683 32.273 37.6339 32.0445C37.3995 31.8159 37.0815 31.6875 36.75 31.6875H26.75C26.4185 31.6875 26.1005 31.8159 25.8661 32.0445C25.6317 32.273 25.5 32.583 25.5 32.9062V34.125L23.6914 35.0071C23.4837 35.1082 23.309 35.2638 23.1869 35.4563C23.0648 35.6488 23.0001 35.8707 23 36.0971V37.7812C23 38.1045 23.1317 38.4145 23.3661 38.643C23.6005 38.8716 23.9185 39 24.25 39H39.25C39.5815 39 39.8995 38.8716 40.1339 38.643C40.3683 38.4145 40.5 38.1045 40.5 37.7812V36.0971C40.5 35.8708 40.4354 35.649 40.3135 35.4565C40.1915 35.2639 40.0169 35.1083 39.8094 35.0071Z" fill="#103ACC"/>
</svg>
