<svg width="27" height="27" viewBox="0 0 27 27" fill="none" xmlns="http://www.w3.org/2000/svg">
<rect width="27" height="27" fill="#1E1E1E"/>
<g clip-path="url(#clip0_0_1)">
<rect width="430" height="954" transform="translate(-258 -252)" fill="white"/>
<g clip-path="url(#clip1_0_1)">
<path d="M103.737 18.9771C150.675 73.2655 116.255 182.204 64.0642 241.342C3.91287 309.485 -65.3141 295.023 -96.2306 359.694C-124.459 418.697 -81.2 460.91 -104.303 502.26C-125.536 540.261 -197.226 567.548 -406.578 533.866" stroke="#E7EBFA" stroke-miterlimit="10"/>
<path d="M-409.175 524.627C-202.681 557.627 -129.899 531.232 -107.046 493.829C-90.1397 466.081 -104.258 437.595 -105.221 403.648C-105.973 386.47 -102.464 369.166 -95.0093 353.288C-70.6213 301.254 -23.0846 298.695 26.682 263.532C39.4 254.597 51.1025 244.237 61.5488 232.665C114.813 174.028 153.014 69.8967 109.093 16.0687" stroke="#E7EBFA" stroke-miterlimit="10"/>
<path d="M-411.744 515.394C-208.118 547.705 -134.278 522.222 -109.873 485.477C-91.936 458.465 -104.517 430.336 -104.565 397.11C-104.801 379.982 -101.143 362.836 -93.8716 346.979C-70.1995 295.381 -25.2506 290.608 24.1309 254.84C36.7032 245.771 48.3714 235.458 58.949 224.068C113.118 165.769 155.278 66.6151 114.374 13.2473" stroke="#E7EBFA" stroke-miterlimit="10"/>
<path d="M-414.304 506.185C-213.591 537.804 -138.677 513.195 -112.66 477.094C-93.6928 450.783 -104.752 423.065 -103.87 390.523C-103.601 373.47 -99.8062 356.488 -92.7272 340.66C-69.7373 289.459 -27.4427 282.567 21.5864 246.139C34.0419 236.95 45.6973 226.68 56.4089 215.455C111.577 157.593 157.594 63.3277 119.706 10.4202" stroke="#E7EBFA" stroke-miterlimit="10"/>
<path d="M-416.91 496.938C-219.037 527.892 -143.101 504.181 -115.445 468.694C-95.4834 443.105 -104.979 415.75 -103.146 383.925C-102.372 366.937 -98.4282 350.092 -91.5224 334.274C-69.2147 283.47 -29.5584 274.422 19.1444 237.322C31.4373 228.014 43.0458 217.801 53.8669 206.772C110.042 149.337 159.907 59.9528 125.044 7.49583" stroke="#E7EBFA" stroke-miterlimit="10"/>
<path d="M-419.53 487.745C-224.491 517.988 -146.601 495.913 -118.222 460.301C-97.94 434.903 -105.142 408.49 -102.449 377.338C-101.159 360.431 -97.0668 343.725 -90.3433 327.916C-68.7179 277.509 -31.7167 266.324 16.5917 228.612C28.7542 219.199 40.3395 209.034 51.2757 198.183C108.495 141.206 162.18 56.6789 130.324 4.67417" stroke="#E7EBFA" stroke-miterlimit="10"/>
<path d="M-422.078 478.464C-229.948 508.067 -152.017 486.095 -120.963 451.957C-99.1476 427.746 -105.345 401.162 -101.755 370.734C-99.9563 353.922 -95.7177 337.349 -89.1754 321.549C-68.2323 271.54 -33.8516 258.197 14.0707 219.864C26.0923 210.334 37.6498 200.212 48.6977 189.538C106.924 132.988 164.493 53.3738 135.627 1.80533" stroke="#E7EBFA" stroke-miterlimit="10"/>
<path d="M-424.664 469.233C-235.419 498.184 -156.431 477.106 -123.795 443.517C-100.964 420.079 -105.445 393.888 -101.039 364.146C-98.7327 347.444 -94.3402 331.002 -87.9674 315.216C-67.7242 265.606 -35.9826 250.089 11.5899 211.148C22.6474 202.077 34.2525 192.221 46.169 180.934C105.439 124.825 166.783 50.0456 140.951 -1.04662" stroke="#E7EBFA" stroke-miterlimit="10"/>
<path d="M-427.252 460.001C-240.858 488.244 -160.948 468.029 -126.563 435.15C-102.791 412.404 -105.548 386.596 -100.3 357.546C-97.481 340.957 -92.9408 324.63 -86.7549 308.837C-67.194 259.624 -38.0806 241.977 9.10417 202.379C20.0923 193.163 31.6537 183.32 43.6439 172.266C103.873 116.678 169.079 46.7249 146.273 -3.89904" stroke="#E7EBFA" stroke-miterlimit="10"/>
<path d="M-429.822 450.768C-246.304 478.331 -165.446 458.968 -129.367 426.733C-104.673 404.681 -105.626 379.238 -99.6282 350.97C-96.306 334.512 -91.6225 318.298 -85.6274 302.502C-66.7403 253.676 -40.2652 233.873 6.58832 193.684C17.4651 184.372 29.0349 174.519 41.0896 163.691C102.449 108.517 171.432 43.4521 151.634 -6.71959" stroke="#E7EBFA" stroke-miterlimit="10"/>
<path d="M-432.409 441.536C-251.759 468.429 -169.963 449.891 -132.17 418.37C-106.562 397.004 -105.726 371.982 -98.9495 344.386C-95.1119 328.072 -90.2745 311.967 -84.4657 296.164C-66.2693 247.745 -42.4232 225.795 4.01472 184.924C14.8036 175.451 26.3575 165.636 38.4589 155.035C100.891 100.344 173.657 40.1213 156.892 -9.60952" stroke="#E7EBFA" stroke-miterlimit="10"/>
<path d="M-434.996 432.304C-257.213 458.508 -174.461 440.794 -134.929 409.958C-108.409 389.259 -105.757 364.664 -98.2348 337.78C-93.9062 322.329 -89.3972 306.574 -83.2689 289.787C-65.7454 241.773 -44.5469 217.658 1.52268 176.164C12.2162 166.558 23.7625 156.77 35.9359 146.367C99.4397 92.1587 175.998 36.7693 162.232 -12.4995" stroke="#E7EBFA" stroke-miterlimit="10"/>
<path d="M-437.583 423.073C-262.696 448.563 -179.038 431.75 -137.723 401.567C-110.282 381.544 -105.771 357.363 -97.5295 331.183C-92.6678 315.733 -87.9851 300.078 -82.0898 283.429C-65.2764 235.788 -46.6874 209.559 -0.987058 167.424C9.60177 157.677 21.1489 147.906 33.3615 137.758C97.9476 84.0583 178.288 33.4762 167.529 -15.3404" stroke="#E7EBFA" stroke-miterlimit="10"/>
<path d="M-440.187 413.86C-268.123 438.684 -183.532 422.59 -140.518 393.175C-112.183 373.804 -105.775 350.07 -96.8334 324.579C-91.4118 309.136 -86.573 293.581 -80.9537 277.102C-64.7863 229.873 -48.8803 201.483 -3.5155 158.667C6.99559 148.785 18.5268 139.052 30.7853 129.114C96.4806 75.9285 180.594 30.1634 172.843 -18.2009" stroke="#E7EBFA" stroke-miterlimit="10"/>
<path d="M-442.741 404.607C-273.57 428.771 -188.104 413.483 -143.296 384.783C-114.049 366.062 -105.744 342.791 -96.128 318C-90.137 302.572 -85.144 287.082 -79.7325 270.713C-64.2641 223.901 -50.9703 193.344 -6.0168 149.935C4.93474 139.567 16.3795 129.745 28.2724 120.508C95.0138 67.8166 182.907 26.8055 178.165 -21.0533" stroke="#E7EBFA" stroke-miterlimit="10"/>
<path d="M-445.327 395.376C-279.023 418.852 -192.579 404.322 -146.105 376.43C-115.955 358.351 -105.726 335.55 -95.4125 311.395C-88.8429 295.99 -83.7125 280.585 -78.5516 264.356C-63.7572 217.931 -53.11 185.228 -8.54163 141.215C2.26089 130.736 13.6891 120.936 25.672 111.876C93.6052 59.7535 185.19 23.523 183.527 -23.8905" stroke="#E7EBFA" stroke-miterlimit="10"/>
<path d="M-447.915 386.144C-284.479 408.948 -197.121 395.104 -148.858 368.007C-117.842 350.574 -105.642 328.265 -94.7077 304.815C-87.5502 289.442 -82.3102 274.097 -77.3824 258.007C-63.2786 211.989 -55.252 177.128 -11.036 132.455C-0.370823 121.875 11.0518 112.103 23.1297 103.227C92.1201 51.6424 187.486 20.2014 188.802 -26.7839" stroke="#E7EBFA" stroke-miterlimit="10"/>
<path d="M-450.495 376.902C-289.972 398.995 -201.702 385.989 -151.653 359.616C-119.709 342.796 -105.565 321.026 -94.0114 298.229C-86.2138 282.863 -80.8895 267.608 -76.204 251.649C-62.7638 206.045 -57.4025 169.021 -13.5558 123.707C-3.02322 113.033 8.39535 103.288 20.5622 94.5905C90.6728 43.5643 189.791 16.8889 194.115 -29.6441" stroke="#E7EBFA" stroke-miterlimit="10"/>
<path d="M-453.082 367.671C-295.423 389.164 -206.251 376.799 -154.467 351.192C-121.631 334.988 -105.522 313.774 -93.3617 291.585C-85.0108 276.272 -79.5163 261.044 -75.0806 245.244C-62.3412 200.021 -59.5997 160.857 -16.1027 114.935C-5.70338 104.168 5.71289 94.4488 17.9675 85.9306C89.2076 35.4706 192.075 13.4719 199.392 -32.5361" stroke="#E7EBFA" stroke-miterlimit="10"/>
<path d="M-455.67 358.439C-300.845 379.204 -210.791 367.599 -157.225 342.832C-123.471 327.233 -105.387 306.6 -92.6007 285.036C-83.5877 269.818 -78.0569 254.605 -73.8644 238.918C-61.8157 194.102 -61.7031 152.79 -18.5939 106.211C-8.33259 95.3456 3.08379 85.6504 15.4285 77.3179C87.8176 27.4578 194.395 10.2557 204.743 -35.3648" stroke="#E7EBFA" stroke-miterlimit="10"/>
<path d="M-458.239 349.206C-306.291 369.291 -215.378 358.36 -160.035 334.479C-125.39 319.479 -105.322 299.452 -91.9372 278.489C-82.2713 263.358 -76.6689 248.156 -72.6992 232.633C-61.3337 188.196 -63.8594 144.729 -21.1185 97.5263C-10.9842 86.5699 0.435695 76.8948 12.8645 68.7352C86.4348 19.5878 196.659 6.97446 210.049 -38.1972" stroke="#E7EBFA" stroke-miterlimit="10"/>
<path d="M-460.836 339.984C-218.889 371.493 -127.634 324.988 -91.1999 271.854C-51.4259 213.852 -80.7791 153.318 -23.6057 88.7398C43.4734 12.9934 196.217 11.2002 215.378 -41.0765" stroke="#E7EBFA" stroke-miterlimit="10"/>
<path d="M-208.031 -51L-215.007 -73.4H-210.655L-206.687 -60.184C-206.559 -59.7787 -206.442 -59.3307 -206.335 -58.84C-206.229 -58.3493 -206.133 -57.8587 -206.047 -57.368C-205.962 -56.8987 -205.887 -56.4613 -205.823 -56.056C-205.759 -55.6507 -205.695 -55.3093 -205.631 -55.032L-206.495 -55.064C-206.239 -56.0667 -206.037 -56.8773 -205.887 -57.496C-205.738 -58.1147 -205.61 -58.6267 -205.503 -59.032C-205.375 -59.4587 -205.247 -59.8533 -205.119 -60.216L-201.343 -69.88H-197.791L-194.111 -60.216C-193.898 -59.6187 -193.706 -59.0427 -193.535 -58.488C-193.365 -57.9547 -193.226 -57.4213 -193.119 -56.888C-192.991 -56.376 -192.874 -55.8427 -192.767 -55.288L-193.535 -55.128C-193.45 -55.64 -193.386 -56.056 -193.343 -56.376C-193.301 -56.696 -193.258 -56.984 -193.215 -57.24C-193.173 -57.496 -193.13 -57.7413 -193.087 -57.976C-193.045 -58.232 -192.981 -58.5307 -192.895 -58.872C-192.789 -59.2347 -192.661 -59.6933 -192.511 -60.248L-188.575 -73.4H-184.255L-191.263 -51H-194.271L-199.967 -64.632L-199.583 -64.504L-204.991 -51H-208.031ZM-173.992 -50.68C-175.763 -50.68 -177.331 -51.0533 -178.696 -51.8C-180.04 -52.5467 -181.096 -53.56 -181.864 -54.84C-182.611 -56.1413 -182.984 -57.624 -182.984 -59.288C-182.984 -60.6107 -182.771 -61.816 -182.344 -62.904C-181.917 -63.992 -181.331 -64.9307 -180.584 -65.72C-179.816 -66.5307 -178.909 -67.1493 -177.864 -67.576C-176.797 -68.024 -175.635 -68.248 -174.376 -68.248C-173.267 -68.248 -172.232 -68.0347 -171.272 -67.608C-170.312 -67.1813 -169.48 -66.5947 -168.776 -65.848C-168.072 -65.1227 -167.539 -64.248 -167.176 -63.224C-166.792 -62.2213 -166.611 -61.1227 -166.632 -59.928L-166.664 -58.552H-180.328L-181.064 -61.24H-169.96L-170.472 -60.696V-61.4C-170.536 -62.0613 -170.749 -62.6373 -171.112 -63.128C-171.475 -63.64 -171.944 -64.0347 -172.52 -64.312C-173.075 -64.6107 -173.693 -64.76 -174.376 -64.76C-175.421 -64.76 -176.307 -64.5573 -177.032 -64.152C-177.736 -63.7467 -178.269 -63.16 -178.632 -62.392C-178.995 -61.6453 -179.176 -60.7067 -179.176 -59.576C-179.176 -58.488 -178.952 -57.5387 -178.504 -56.728C-178.035 -55.9173 -177.384 -55.288 -176.552 -54.84C-175.699 -54.4133 -174.707 -54.2 -173.576 -54.2C-172.787 -54.2 -172.061 -54.328 -171.4 -54.584C-170.739 -54.84 -170.024 -55.2987 -169.256 -55.96L-167.304 -53.24C-167.88 -52.7067 -168.541 -52.248 -169.288 -51.864C-170.013 -51.5013 -170.781 -51.2133 -171.592 -51C-172.403 -50.7867 -173.203 -50.68 -173.992 -50.68ZM-146.316 -50.68C-147.809 -50.68 -149.153 -51.0533 -150.348 -51.8C-151.521 -52.568 -152.46 -53.6027 -153.164 -54.904C-153.846 -56.2267 -154.188 -57.7413 -154.188 -59.448C-154.188 -61.1333 -153.846 -62.6373 -153.164 -63.96C-152.481 -65.2827 -151.553 -66.3173 -150.38 -67.064C-149.185 -67.832 -147.841 -68.216 -146.348 -68.216C-145.537 -68.216 -144.758 -68.088 -144.012 -67.832C-143.244 -67.576 -142.561 -67.224 -141.964 -66.776C-141.366 -66.3493 -140.897 -65.8693 -140.556 -65.336C-140.193 -64.8027 -139.99 -64.248 -139.948 -63.672L-141.004 -63.544V-74.68H-137.068V-51H-140.876L-140.972 -54.968L-140.204 -54.904C-140.225 -54.3707 -140.417 -53.8587 -140.78 -53.368C-141.121 -52.8773 -141.569 -52.4293 -142.124 -52.024C-142.678 -51.6187 -143.329 -51.288 -144.076 -51.032C-144.801 -50.7973 -145.548 -50.68 -146.316 -50.68ZM-145.548 -54.008C-144.63 -54.008 -143.82 -54.2427 -143.116 -54.712C-142.412 -55.1813 -141.868 -55.8213 -141.484 -56.632C-141.078 -57.4427 -140.876 -58.3813 -140.876 -59.448C-140.876 -60.4933 -141.078 -61.4213 -141.484 -62.232C-141.868 -63.064 -142.412 -63.704 -143.116 -64.152C-143.82 -64.6213 -144.63 -64.856 -145.548 -64.856C-146.465 -64.856 -147.276 -64.6213 -147.98 -64.152C-148.684 -63.704 -149.238 -63.064 -149.644 -62.232C-150.028 -61.4213 -150.22 -60.4933 -150.22 -59.448C-150.22 -58.3813 -150.028 -57.4427 -149.644 -56.632C-149.238 -55.8213 -148.684 -55.1813 -147.98 -54.712C-147.276 -54.2427 -146.465 -54.008 -145.548 -54.008ZM-124.376 -50.68C-126.146 -50.68 -127.714 -51.0533 -129.08 -51.8C-130.424 -52.5467 -131.48 -53.56 -132.248 -54.84C-132.994 -56.1413 -133.368 -57.624 -133.368 -59.288C-133.368 -60.6107 -133.154 -61.816 -132.728 -62.904C-132.301 -63.992 -131.714 -64.9307 -130.968 -65.72C-130.2 -66.5307 -129.293 -67.1493 -128.248 -67.576C-127.181 -68.024 -126.018 -68.248 -124.76 -68.248C-123.65 -68.248 -122.616 -68.0347 -121.656 -67.608C-120.696 -67.1813 -119.864 -66.5947 -119.16 -65.848C-118.456 -65.1227 -117.922 -64.248 -117.56 -63.224C-117.176 -62.2213 -116.994 -61.1227 -117.016 -59.928L-117.048 -58.552H-130.712L-131.448 -61.24H-120.344L-120.856 -60.696V-61.4C-120.92 -62.0613 -121.133 -62.6373 -121.496 -63.128C-121.858 -63.64 -122.328 -64.0347 -122.904 -64.312C-123.458 -64.6107 -124.077 -64.76 -124.76 -64.76C-125.805 -64.76 -126.69 -64.5573 -127.416 -64.152C-128.12 -63.7467 -128.653 -63.16 -129.016 -62.392C-129.378 -61.6453 -129.56 -60.7067 -129.56 -59.576C-129.56 -58.488 -129.336 -57.5387 -128.888 -56.728C-128.418 -55.9173 -127.768 -55.288 -126.936 -54.84C-126.082 -54.4133 -125.09 -54.2 -123.96 -54.2C-123.17 -54.2 -122.445 -54.328 -121.784 -54.584C-121.122 -54.84 -120.408 -55.2987 -119.64 -55.96L-117.688 -53.24C-118.264 -52.7067 -118.925 -52.248 -119.672 -51.864C-120.397 -51.5013 -121.165 -51.2133 -121.976 -51C-122.786 -50.7867 -123.586 -50.68 -124.376 -50.68ZM-113.178 -51V-74.68H-109.21V-51H-113.178ZM-103.817 -51V-67.864H-99.8808V-51H-103.817ZM-101.897 -71.448C-102.686 -71.448 -103.305 -71.64 -103.753 -72.024C-104.179 -72.4293 -104.393 -72.9947 -104.393 -73.72C-104.393 -74.4027 -104.169 -74.9573 -103.721 -75.384C-103.273 -75.8107 -102.665 -76.024 -101.897 -76.024C-101.086 -76.024 -100.467 -75.8213 -100.041 -75.416C-99.5928 -75.032 -99.3688 -74.4667 -99.3688 -73.72C-99.3688 -73.0587 -99.5928 -72.5147 -100.041 -72.088C-100.489 -71.6613 -101.107 -71.448 -101.897 -71.448ZM-89.1617 -51L-96.2657 -67.864H-91.9777L-87.1777 -55.256L-88.0097 -55.032L-82.9537 -67.864H-78.7617L-86.2177 -51H-89.1617ZM-68.127 -50.68C-69.8977 -50.68 -71.4657 -51.0533 -72.831 -51.8C-74.175 -52.5467 -75.231 -53.56 -75.999 -54.84C-76.7457 -56.1413 -77.119 -57.624 -77.119 -59.288C-77.119 -60.6107 -76.9057 -61.816 -76.479 -62.904C-76.0523 -63.992 -75.4657 -64.9307 -74.719 -65.72C-73.951 -66.5307 -73.0443 -67.1493 -71.999 -67.576C-70.9323 -68.024 -69.7697 -68.248 -68.511 -68.248C-67.4017 -68.248 -66.367 -68.0347 -65.407 -67.608C-64.447 -67.1813 -63.615 -66.5947 -62.911 -65.848C-62.207 -65.1227 -61.6737 -64.248 -61.311 -63.224C-60.927 -62.2213 -60.7457 -61.1227 -60.767 -59.928L-60.799 -58.552H-74.463L-75.199 -61.24H-64.095L-64.607 -60.696V-61.4C-64.671 -62.0613 -64.8843 -62.6373 -65.247 -63.128C-65.6097 -63.64 -66.079 -64.0347 -66.655 -64.312C-67.2097 -64.6107 -67.8283 -64.76 -68.511 -64.76C-69.5563 -64.76 -70.4417 -64.5573 -71.167 -64.152C-71.871 -63.7467 -72.4043 -63.16 -72.767 -62.392C-73.1297 -61.6453 -73.311 -60.7067 -73.311 -59.576C-73.311 -58.488 -73.087 -57.5387 -72.639 -56.728C-72.1697 -55.9173 -71.519 -55.288 -70.687 -54.84C-69.8337 -54.4133 -68.8417 -54.2 -67.711 -54.2C-66.9217 -54.2 -66.1963 -54.328 -65.535 -54.584C-64.8737 -54.84 -64.159 -55.2987 -63.391 -55.96L-61.439 -53.24C-62.015 -52.7067 -62.6763 -52.248 -63.423 -51.864C-64.1483 -51.5013 -64.9163 -51.2133 -65.727 -51C-66.5377 -50.7867 -67.3377 -50.68 -68.127 -50.68ZM-56.961 -51V-67.864H-53.089L-53.025 -62.488L-53.569 -63.704C-53.3343 -64.5573 -52.929 -65.3253 -52.353 -66.008C-51.777 -66.6907 -51.1157 -67.224 -50.369 -67.608C-49.601 -68.0133 -48.801 -68.216 -47.969 -68.216C-47.6063 -68.216 -47.265 -68.184 -46.945 -68.12C-46.6037 -68.056 -46.3263 -67.9813 -46.113 -67.896L-47.169 -63.576C-47.4037 -63.704 -47.6917 -63.8107 -48.033 -63.896C-48.3743 -63.9813 -48.7157 -64.024 -49.057 -64.024C-49.5903 -64.024 -50.1023 -63.9173 -50.593 -63.704C-51.0623 -63.512 -51.4783 -63.2347 -51.841 -62.872C-52.2037 -62.5093 -52.4917 -62.0827 -52.705 -61.592C-52.897 -61.1227 -52.993 -60.5893 -52.993 -59.992V-51H-56.961ZM-31.622 -51V-72.152H-27.686V-51H-31.622ZM-34.95 -64.216V-67.864H-24.006V-64.216H-34.95ZM-20.6885 -51V-74.68H-16.7845V-64.408L-17.5205 -64.024C-17.3072 -64.792 -16.8912 -65.4853 -16.2725 -66.104C-15.6538 -66.744 -14.9178 -67.256 -14.0645 -67.64C-13.2112 -68.024 -12.3365 -68.216 -11.4405 -68.216C-10.1605 -68.216 -9.09384 -67.96 -8.24051 -67.448C-7.36584 -66.936 -6.71517 -66.168 -6.28851 -65.144C-5.84051 -64.12 -5.61651 -62.84 -5.61651 -61.304V-51H-9.55251V-61.016C-9.55251 -61.8693 -9.66984 -62.5733 -9.90451 -63.128C-10.1392 -63.704 -10.5018 -64.12 -10.9925 -64.376C-11.4832 -64.6533 -12.0805 -64.7813 -12.7845 -64.76C-13.3605 -64.76 -13.8938 -64.664 -14.3845 -64.472C-14.8538 -64.3013 -15.2698 -64.0453 -15.6325 -63.704C-15.9738 -63.384 -16.2512 -63.0107 -16.4645 -62.584C-16.6565 -62.1573 -16.7525 -61.688 -16.7525 -61.176V-51H-18.7045C-19.0885 -51 -19.4512 -51 -19.7925 -51C-20.1125 -51 -20.4112 -51 -20.6885 -51ZM7.0355 -50.68C5.26483 -50.68 3.69683 -51.0533 2.3315 -51.8C0.9875 -52.5467 -0.0685004 -53.56 -0.8365 -54.84C-1.58317 -56.1413 -1.9565 -57.624 -1.9565 -59.288C-1.9565 -60.6107 -1.74317 -61.816 -1.3165 -62.904C-0.889834 -63.992 -0.303167 -64.9307 0.4435 -65.72C1.2115 -66.5307 2.11817 -67.1493 3.1635 -67.576C4.23017 -68.024 5.39283 -68.248 6.6515 -68.248C7.76083 -68.248 8.7955 -68.0347 9.7555 -67.608C10.7155 -67.1813 11.5475 -66.5947 12.2515 -65.848C12.9555 -65.1227 13.4888 -64.248 13.8515 -63.224C14.2355 -62.2213 14.4168 -61.1227 14.3955 -59.928L14.3635 -58.552H0.6995L-0.0365005 -61.24H11.0675L10.5555 -60.696V-61.4C10.4915 -62.0613 10.2782 -62.6373 9.9155 -63.128C9.55283 -63.64 9.0835 -64.0347 8.5075 -64.312C7.95283 -64.6107 7.33417 -64.76 6.6515 -64.76C5.60617 -64.76 4.72083 -64.5573 3.9955 -64.152C3.2915 -63.7467 2.75817 -63.16 2.3955 -62.392C2.03283 -61.6453 1.8515 -60.7067 1.8515 -59.576C1.8515 -58.488 2.0755 -57.5387 2.5235 -56.728C2.99283 -55.9173 3.6435 -55.288 4.4755 -54.84C5.32883 -54.4133 6.32083 -54.2 7.4515 -54.2C8.24083 -54.2 8.96617 -54.328 9.6275 -54.584C10.2888 -54.84 11.0035 -55.2987 11.7715 -55.96L13.7235 -53.24C13.1475 -52.7067 12.4862 -52.248 11.7395 -51.864C11.0142 -51.5013 10.2462 -51.2133 9.4355 -51C8.62483 -50.7867 7.82483 -50.68 7.0355 -50.68ZM-185.826 -6V-22.864H-181.954L-181.89 -17.488L-182.434 -18.704C-182.199 -19.5573 -181.794 -20.3253 -181.218 -21.008C-180.642 -21.6907 -179.981 -22.224 -179.234 -22.608C-178.466 -23.0133 -177.666 -23.216 -176.834 -23.216C-176.471 -23.216 -176.13 -23.184 -175.81 -23.12C-175.469 -23.056 -175.191 -22.9813 -174.978 -22.896L-176.034 -18.576C-176.269 -18.704 -176.557 -18.8107 -176.898 -18.896C-177.239 -18.9813 -177.581 -19.024 -177.922 -19.024C-178.455 -19.024 -178.967 -18.9173 -179.458 -18.704C-179.927 -18.512 -180.343 -18.2347 -180.706 -17.872C-181.069 -17.5093 -181.357 -17.0827 -181.57 -16.592C-181.762 -16.1227 -181.858 -15.5893 -181.858 -14.992V-6H-185.826ZM-164.852 -5.68C-166.623 -5.68 -168.191 -6.05333 -169.556 -6.8C-170.9 -7.54667 -171.956 -8.56 -172.724 -9.84C-173.471 -11.1413 -173.844 -12.624 -173.844 -14.288C-173.844 -15.6107 -173.631 -16.816 -173.204 -17.904C-172.777 -18.992 -172.191 -19.9307 -171.444 -20.72C-170.676 -21.5307 -169.769 -22.1493 -168.724 -22.576C-167.657 -23.024 -166.495 -23.248 -165.236 -23.248C-164.127 -23.248 -163.092 -23.0347 -162.132 -22.608C-161.172 -22.1813 -160.34 -21.5947 -159.636 -20.848C-158.932 -20.1227 -158.399 -19.248 -158.036 -18.224C-157.652 -17.2213 -157.471 -16.1227 -157.492 -14.928L-157.524 -13.552H-171.188L-171.924 -16.24H-160.82L-161.332 -15.696V-16.4C-161.396 -17.0613 -161.609 -17.6373 -161.972 -18.128C-162.335 -18.64 -162.804 -19.0347 -163.38 -19.312C-163.935 -19.6107 -164.553 -19.76 -165.236 -19.76C-166.281 -19.76 -167.167 -19.5573 -167.892 -19.152C-168.596 -18.7467 -169.129 -18.16 -169.492 -17.392C-169.855 -16.6453 -170.036 -15.7067 -170.036 -14.576C-170.036 -13.488 -169.812 -12.5387 -169.364 -11.728C-168.895 -10.9173 -168.244 -10.288 -167.412 -9.84C-166.559 -9.41333 -165.567 -9.2 -164.436 -9.2C-163.647 -9.2 -162.921 -9.328 -162.26 -9.584C-161.599 -9.84 -160.884 -10.2987 -160.116 -10.96L-158.164 -8.24C-158.74 -7.70667 -159.401 -7.248 -160.148 -6.864C-160.873 -6.50133 -161.641 -6.21333 -162.452 -6C-163.263 -5.78667 -164.063 -5.68 -164.852 -5.68ZM-148.054 -5.68C-149.547 -5.68 -150.891 -5.92533 -152.086 -6.416C-153.259 -6.928 -154.219 -7.65333 -154.966 -8.592L-152.406 -10.8C-151.766 -10.0747 -151.051 -9.552 -150.262 -9.232C-149.473 -8.912 -148.641 -8.752 -147.766 -8.752C-147.403 -8.752 -147.083 -8.79467 -146.806 -8.88C-146.507 -8.96533 -146.251 -9.09333 -146.038 -9.264C-145.825 -9.43467 -145.665 -9.62667 -145.558 -9.84C-145.43 -10.0747 -145.366 -10.3307 -145.366 -10.608C-145.366 -11.12 -145.558 -11.5253 -145.942 -11.824C-146.155 -11.9733 -146.497 -12.1333 -146.966 -12.304C-147.414 -12.4747 -148.001 -12.6453 -148.726 -12.816C-149.878 -13.1147 -150.838 -13.456 -151.606 -13.84C-152.374 -14.2453 -152.971 -14.6933 -153.398 -15.184C-153.761 -15.5893 -154.038 -16.048 -154.23 -16.56C-154.401 -17.072 -154.486 -17.6267 -154.486 -18.224C-154.486 -18.9707 -154.326 -19.6427 -154.006 -20.24C-153.665 -20.8587 -153.206 -21.392 -152.63 -21.84C-152.054 -22.288 -151.382 -22.6293 -150.614 -22.864C-149.846 -23.0987 -149.046 -23.216 -148.214 -23.216C-147.361 -23.216 -146.539 -23.1093 -145.75 -22.896C-144.939 -22.6827 -144.193 -22.3733 -143.51 -21.968C-142.806 -21.584 -142.209 -21.1147 -141.718 -20.56L-143.894 -18.16C-144.299 -18.544 -144.747 -18.8853 -145.238 -19.184C-145.707 -19.4827 -146.187 -19.7173 -146.678 -19.888C-147.169 -20.08 -147.627 -20.176 -148.054 -20.176C-148.459 -20.176 -148.822 -20.1333 -149.142 -20.048C-149.462 -19.984 -149.729 -19.8773 -149.942 -19.728C-150.155 -19.5787 -150.326 -19.3867 -150.454 -19.152C-150.561 -18.9387 -150.614 -18.6827 -150.614 -18.384C-150.593 -18.128 -150.529 -17.8827 -150.422 -17.648C-150.294 -17.4347 -150.123 -17.2533 -149.91 -17.104C-149.675 -16.9547 -149.323 -16.784 -148.854 -16.592C-148.385 -16.4 -147.777 -16.2187 -147.03 -16.048C-145.985 -15.7707 -145.11 -15.4613 -144.406 -15.12C-143.702 -14.7787 -143.147 -14.384 -142.742 -13.936C-142.337 -13.552 -142.049 -13.104 -141.878 -12.592C-141.707 -12.08 -141.622 -11.5147 -141.622 -10.896C-141.622 -9.89333 -141.91 -8.99733 -142.486 -8.208C-143.041 -7.41867 -143.809 -6.8 -144.79 -6.352C-145.75 -5.904 -146.838 -5.68 -148.054 -5.68ZM-131.979 -5.68C-133.195 -5.68 -134.251 -5.94667 -135.147 -6.48C-136.043 -7.03467 -136.725 -7.81333 -137.195 -8.816C-137.664 -9.84 -137.899 -11.056 -137.899 -12.464V-22.864H-133.963V-13.296C-133.963 -12.4 -133.824 -11.632 -133.547 -10.992C-133.269 -10.3733 -132.864 -9.89333 -132.331 -9.552C-131.797 -9.21067 -131.157 -9.04 -130.411 -9.04C-129.856 -9.04 -129.355 -9.12533 -128.907 -9.296C-128.437 -9.488 -128.032 -9.744 -127.691 -10.064C-127.349 -10.4053 -127.083 -10.8 -126.891 -11.248C-126.699 -11.7173 -126.603 -12.2187 -126.603 -12.752V-22.864H-122.667V-6H-126.507L-126.571 -9.52L-125.867 -9.904C-126.123 -9.09333 -126.56 -8.368 -127.179 -7.728C-127.776 -7.10933 -128.491 -6.608 -129.323 -6.224C-130.155 -5.86133 -131.04 -5.68 -131.979 -5.68ZM-117.702 -6V-29.68H-113.734V-6H-117.702ZM-107.058 -6V-27.152H-103.122V-6H-107.058ZM-110.386 -19.216V-22.864H-99.4422V-19.216H-110.386ZM-89.8678 -5.68C-91.3611 -5.68 -92.7051 -5.92533 -93.8998 -6.416C-95.0731 -6.928 -96.0331 -7.65333 -96.7798 -8.592L-94.2198 -10.8C-93.5798 -10.0747 -92.8651 -9.552 -92.0758 -9.232C-91.2864 -8.912 -90.4544 -8.752 -89.5798 -8.752C-89.2171 -8.752 -88.8971 -8.79467 -88.6198 -8.88C-88.3211 -8.96533 -88.0651 -9.09333 -87.8518 -9.264C-87.6384 -9.43467 -87.4784 -9.62667 -87.3718 -9.84C-87.2438 -10.0747 -87.1798 -10.3307 -87.1798 -10.608C-87.1798 -11.12 -87.3718 -11.5253 -87.7558 -11.824C-87.9691 -11.9733 -88.3104 -12.1333 -88.7798 -12.304C-89.2278 -12.4747 -89.8144 -12.6453 -90.5398 -12.816C-91.6918 -13.1147 -92.6518 -13.456 -93.4198 -13.84C-94.1878 -14.2453 -94.7851 -14.6933 -95.2118 -15.184C-95.5744 -15.5893 -95.8518 -16.048 -96.0438 -16.56C-96.2144 -17.072 -96.2998 -17.6267 -96.2998 -18.224C-96.2998 -18.9707 -96.1398 -19.6427 -95.8198 -20.24C-95.4784 -20.8587 -95.0198 -21.392 -94.4438 -21.84C-93.8678 -22.288 -93.1958 -22.6293 -92.4278 -22.864C-91.6598 -23.0987 -90.8598 -23.216 -90.0278 -23.216C-89.1744 -23.216 -88.3531 -23.1093 -87.5638 -22.896C-86.7531 -22.6827 -86.0064 -22.3733 -85.3238 -21.968C-84.6198 -21.584 -84.0224 -21.1147 -83.5318 -20.56L-85.7078 -18.16C-86.1131 -18.544 -86.5611 -18.8853 -87.0518 -19.184C-87.5211 -19.4827 -88.0011 -19.7173 -88.4918 -19.888C-88.9824 -20.08 -89.4411 -20.176 -89.8678 -20.176C-90.2731 -20.176 -90.6358 -20.1333 -90.9558 -20.048C-91.2758 -19.984 -91.5424 -19.8773 -91.7558 -19.728C-91.9691 -19.5787 -92.1398 -19.3867 -92.2678 -19.152C-92.3744 -18.9387 -92.4278 -18.6827 -92.4278 -18.384C-92.4064 -18.128 -92.3424 -17.8827 -92.2358 -17.648C-92.1078 -17.4347 -91.9371 -17.2533 -91.7238 -17.104C-91.4891 -16.9547 -91.1371 -16.784 -90.6678 -16.592C-90.1984 -16.4 -89.5904 -16.2187 -88.8438 -16.048C-87.7984 -15.7707 -86.9238 -15.4613 -86.2198 -15.12C-85.5158 -14.7787 -84.9611 -14.384 -84.5558 -13.936C-84.1504 -13.552 -83.8624 -13.104 -83.6918 -12.592C-83.5211 -12.08 -83.4358 -11.5147 -83.4358 -10.896C-83.4358 -9.89333 -83.7238 -8.99733 -84.2998 -8.208C-84.8544 -7.41867 -85.6224 -6.8 -86.6038 -6.352C-87.5638 -5.904 -88.6518 -5.68 -89.8678 -5.68ZM-67.3623 1.36L-63.7783 -6.928L-63.7463 -4.304L-72.0663 -22.864H-67.5223L-62.8823 -11.856C-62.7329 -11.5787 -62.5836 -11.2053 -62.4343 -10.736C-62.2849 -10.288 -62.1569 -9.84 -62.0503 -9.392L-62.8503 -9.136C-62.7009 -9.54133 -62.5409 -9.968 -62.3703 -10.416C-62.1996 -10.8853 -62.0396 -11.3653 -61.8903 -11.856L-57.9223 -22.864H-53.3463L-60.3863 -6L-63.2663 1.36H-67.3623ZM-43.1715 -5.68C-44.8568 -5.68 -46.3608 -6.05333 -47.6835 -6.8C-49.0062 -7.568 -50.0515 -8.61333 -50.8195 -9.936C-51.5875 -11.2587 -51.9715 -12.7627 -51.9715 -14.448C-51.9715 -16.1333 -51.5875 -17.6373 -50.8195 -18.96C-50.0515 -20.2827 -49.0062 -21.3173 -47.6835 -22.064C-46.3608 -22.832 -44.8568 -23.216 -43.1715 -23.216C-41.5075 -23.216 -40.0142 -22.832 -38.6915 -22.064C-37.3688 -21.3173 -36.3342 -20.2827 -35.5875 -18.96C-34.8195 -17.6373 -34.4355 -16.1333 -34.4355 -14.448C-34.4355 -12.7627 -34.8195 -11.2587 -35.5875 -9.936C-36.3342 -8.61333 -37.3688 -7.568 -38.6915 -6.8C-40.0142 -6.05333 -41.5075 -5.68 -43.1715 -5.68ZM-43.1715 -9.168C-42.2542 -9.168 -41.4435 -9.40267 -40.7395 -9.872C-40.0142 -10.3413 -39.4488 -10.9707 -39.0435 -11.76C-38.6168 -12.5493 -38.4142 -13.4453 -38.4355 -14.448C-38.4142 -15.472 -38.6168 -16.3787 -39.0435 -17.168C-39.4488 -17.9573 -40.0142 -18.576 -40.7395 -19.024C-41.4435 -19.4933 -42.2542 -19.728 -43.1715 -19.728C-44.0888 -19.728 -44.9208 -19.4933 -45.6675 -19.024C-46.3928 -18.576 -46.9582 -17.9467 -47.3635 -17.136C-47.7688 -16.3467 -47.9715 -15.4507 -47.9715 -14.448C-47.9715 -13.4453 -47.7688 -12.5493 -47.3635 -11.76C-46.9582 -10.9707 -46.3928 -10.3413 -45.6675 -9.872C-44.9208 -9.40267 -44.0888 -9.168 -43.1715 -9.168ZM-24.7388 -5.68C-25.9548 -5.68 -27.0108 -5.94667 -27.9068 -6.48C-28.8028 -7.03467 -29.4854 -7.81333 -29.9548 -8.816C-30.4241 -9.84 -30.6588 -11.056 -30.6588 -12.464V-22.864H-26.7228V-13.296C-26.7228 -12.4 -26.5841 -11.632 -26.3068 -10.992C-26.0294 -10.3733 -25.6241 -9.89333 -25.0908 -9.552C-24.5574 -9.21067 -23.9174 -9.04 -23.1708 -9.04C-22.6161 -9.04 -22.1148 -9.12533 -21.6668 -9.296C-21.1974 -9.488 -20.7921 -9.744 -20.4508 -10.064C-20.1094 -10.4053 -19.8428 -10.8 -19.6508 -11.248C-19.4588 -11.7173 -19.3628 -12.2187 -19.3628 -12.752V-22.864H-15.4268V-6H-19.2668L-19.3308 -9.52L-18.6268 -9.904C-18.8828 -9.09333 -19.3201 -8.368 -19.9388 -7.728C-20.5361 -7.10933 -21.2508 -6.608 -22.0828 -6.224C-22.9148 -5.86133 -23.8001 -5.68 -24.7388 -5.68ZM6.01674 -5.68C4.52341 -5.68 3.17941 -6.05333 1.98474 -6.8C0.811408 -7.568 -0.127258 -8.60267 -0.831259 -9.904C-1.51393 -11.2267 -1.85526 -12.7413 -1.85526 -14.448C-1.85526 -16.1333 -1.51393 -17.6373 -0.831259 -18.96C-0.148592 -20.2827 0.779408 -21.3173 1.95274 -22.064C3.14741 -22.832 4.49141 -23.216 5.98474 -23.216C6.79541 -23.216 7.57408 -23.088 8.32074 -22.832C9.08874 -22.576 9.77141 -22.224 10.3687 -21.776C10.9661 -21.3493 11.4354 -20.8693 11.7767 -20.336C12.1394 -19.8027 12.3421 -19.248 12.3847 -18.672L11.3287 -18.544V-29.68H15.2647V-6H11.4567L11.3607 -9.968L12.1287 -9.904C12.1074 -9.37067 11.9154 -8.85867 11.5527 -8.368C11.2114 -7.87733 10.7634 -7.42933 10.2087 -7.024C9.65408 -6.61867 9.00341 -6.288 8.25674 -6.032C7.53141 -5.79733 6.78474 -5.68 6.01674 -5.68ZM6.78474 -9.008C7.70208 -9.008 8.51274 -9.24267 9.21674 -9.712C9.92074 -10.1813 10.4647 -10.8213 10.8487 -11.632C11.2541 -12.4427 11.4567 -13.3813 11.4567 -14.448C11.4567 -15.4933 11.2541 -16.4213 10.8487 -17.232C10.4647 -18.064 9.92074 -18.704 9.21674 -19.152C8.51274 -19.6213 7.70208 -19.856 6.78474 -19.856C5.86741 -19.856 5.05674 -19.6213 4.35274 -19.152C3.64874 -18.704 3.09408 -18.064 2.68874 -17.232C2.30474 -16.4213 2.11274 -15.4933 2.11274 -14.448C2.11274 -13.3813 2.30474 -12.4427 2.68874 -11.632C3.09408 -10.8213 3.64874 -10.1813 4.35274 -9.712C5.05674 -9.24267 5.86741 -9.008 6.78474 -9.008ZM27.9567 -5.68C26.1861 -5.68 24.6181 -6.05333 23.2527 -6.8C21.9087 -7.54667 20.8527 -8.56 20.0847 -9.84C19.3381 -11.1413 18.9647 -12.624 18.9647 -14.288C18.9647 -15.6107 19.1781 -16.816 19.6047 -17.904C20.0314 -18.992 20.6181 -19.9307 21.3647 -20.72C22.1327 -21.5307 23.0394 -22.1493 24.0847 -22.576C25.1514 -23.024 26.3141 -23.248 27.5727 -23.248C28.6821 -23.248 29.7167 -23.0347 30.6767 -22.608C31.6367 -22.1813 32.4687 -21.5947 33.1727 -20.848C33.8767 -20.1227 34.4101 -19.248 34.7727 -18.224C35.1567 -17.2213 35.3381 -16.1227 35.3167 -14.928L35.2847 -13.552H21.6207L20.8847 -16.24H31.9887L31.4767 -15.696V-16.4C31.4127 -17.0613 31.1994 -17.6373 30.8367 -18.128C30.4741 -18.64 30.0047 -19.0347 29.4287 -19.312C28.8741 -19.6107 28.2554 -19.76 27.5727 -19.76C26.5274 -19.76 25.6421 -19.5573 24.9167 -19.152C24.2127 -18.7467 23.6794 -18.16 23.3167 -17.392C22.9541 -16.6453 22.7727 -15.7067 22.7727 -14.576C22.7727 -13.488 22.9967 -12.5387 23.4447 -11.728C23.9141 -10.9173 24.5647 -10.288 25.3967 -9.84C26.2501 -9.41333 27.2421 -9.2 28.3727 -9.2C29.1621 -9.2 29.8874 -9.328 30.5487 -9.584C31.2101 -9.84 31.9247 -10.2987 32.6927 -10.96L34.6447 -8.24C34.0687 -7.70667 33.4074 -7.248 32.6607 -6.864C31.9354 -6.50133 31.1674 -6.21333 30.3567 -6C29.5461 -5.78667 28.7461 -5.68 27.9567 -5.68ZM44.7547 -5.68C43.2614 -5.68 41.9174 -5.92533 40.7227 -6.416C39.5494 -6.928 38.5894 -7.65333 37.8427 -8.592L40.4027 -10.8C41.0427 -10.0747 41.7574 -9.552 42.5467 -9.232C43.3361 -8.912 44.1681 -8.752 45.0427 -8.752C45.4054 -8.752 45.7254 -8.79467 46.0027 -8.88C46.3014 -8.96533 46.5574 -9.09333 46.7707 -9.264C46.9841 -9.43467 47.1441 -9.62667 47.2507 -9.84C47.3787 -10.0747 47.4427 -10.3307 47.4427 -10.608C47.4427 -11.12 47.2507 -11.5253 46.8667 -11.824C46.6534 -11.9733 46.3121 -12.1333 45.8427 -12.304C45.3947 -12.4747 44.8081 -12.6453 44.0827 -12.816C42.9307 -13.1147 41.9707 -13.456 41.2027 -13.84C40.4347 -14.2453 39.8374 -14.6933 39.4107 -15.184C39.0481 -15.5893 38.7707 -16.048 38.5787 -16.56C38.4081 -17.072 38.3227 -17.6267 38.3227 -18.224C38.3227 -18.9707 38.4827 -19.6427 38.8027 -20.24C39.1441 -20.8587 39.6027 -21.392 40.1787 -21.84C40.7547 -22.288 41.4267 -22.6293 42.1947 -22.864C42.9627 -23.0987 43.7627 -23.216 44.5947 -23.216C45.4481 -23.216 46.2694 -23.1093 47.0587 -22.896C47.8694 -22.6827 48.6161 -22.3733 49.2987 -21.968C50.0027 -21.584 50.6001 -21.1147 51.0907 -20.56L48.9147 -18.16C48.5094 -18.544 48.0614 -18.8853 47.5707 -19.184C47.1014 -19.4827 46.6214 -19.7173 46.1307 -19.888C45.6401 -20.08 45.1814 -20.176 44.7547 -20.176C44.3494 -20.176 43.9867 -20.1333 43.6667 -20.048C43.3467 -19.984 43.0801 -19.8773 42.8667 -19.728C42.6534 -19.5787 42.4827 -19.3867 42.3547 -19.152C42.2481 -18.9387 42.1947 -18.6827 42.1947 -18.384C42.2161 -18.128 42.2801 -17.8827 42.3867 -17.648C42.5147 -17.4347 42.6854 -17.2533 42.8987 -17.104C43.1334 -16.9547 43.4854 -16.784 43.9547 -16.592C44.4241 -16.4 45.0321 -16.2187 45.7787 -16.048C46.8241 -15.7707 47.6987 -15.4613 48.4027 -15.12C49.1067 -14.7787 49.6614 -14.384 50.0667 -13.936C50.4721 -13.552 50.7601 -13.104 50.9307 -12.592C51.1014 -12.08 51.1867 -11.5147 51.1867 -10.896C51.1867 -9.89333 50.8987 -8.99733 50.3227 -8.208C49.7681 -7.41867 49.0001 -6.8 48.0187 -6.352C47.0587 -5.904 45.9707 -5.68 44.7547 -5.68ZM55.422 -6V-22.864H59.358V-6H55.422ZM57.342 -26.448C56.5526 -26.448 55.934 -26.64 55.486 -27.024C55.0593 -27.4293 54.846 -27.9947 54.846 -28.72C54.846 -29.4027 55.07 -29.9573 55.518 -30.384C55.966 -30.8107 56.574 -31.024 57.342 -31.024C58.1527 -31.024 58.7713 -30.8213 59.198 -30.416C59.646 -30.032 59.87 -29.4667 59.87 -28.72C59.87 -28.0587 59.646 -27.5147 59.198 -27.088C58.75 -26.6613 58.1313 -26.448 57.342 -26.448ZM64.669 -6V-22.864H68.541L68.605 -17.488L68.061 -18.704C68.2957 -19.5573 68.701 -20.3253 69.277 -21.008C69.853 -21.6907 70.5143 -22.224 71.261 -22.608C72.029 -23.0133 72.829 -23.216 73.661 -23.216C74.0237 -23.216 74.365 -23.184 74.685 -23.12C75.0263 -23.056 75.3037 -22.9813 75.517 -22.896L74.461 -18.576C74.2263 -18.704 73.9383 -18.8107 73.597 -18.896C73.2557 -18.9813 72.9143 -19.024 72.573 -19.024C72.0397 -19.024 71.5277 -18.9173 71.037 -18.704C70.5677 -18.512 70.1517 -18.2347 69.789 -17.872C69.4263 -17.5093 69.1383 -17.0827 68.925 -16.592C68.733 -16.1227 68.637 -15.5893 68.637 -14.992V-6H64.669ZM85.643 -5.68C83.8723 -5.68 82.3043 -6.05333 80.939 -6.8C79.595 -7.54667 78.539 -8.56 77.771 -9.84C77.0243 -11.1413 76.651 -12.624 76.651 -14.288C76.651 -15.6107 76.8643 -16.816 77.291 -17.904C77.7177 -18.992 78.3043 -19.9307 79.051 -20.72C79.819 -21.5307 80.7257 -22.1493 81.771 -22.576C82.8377 -23.024 84.0003 -23.248 85.259 -23.248C86.3683 -23.248 87.403 -23.0347 88.363 -22.608C89.323 -22.1813 90.155 -21.5947 90.859 -20.848C91.563 -20.1227 92.0963 -19.248 92.459 -18.224C92.843 -17.2213 93.0243 -16.1227 93.003 -14.928L92.971 -13.552H79.307L78.571 -16.24H89.675L89.163 -15.696V-16.4C89.099 -17.0613 88.8857 -17.6373 88.523 -18.128C88.1603 -18.64 87.691 -19.0347 87.115 -19.312C86.5603 -19.6107 85.9417 -19.76 85.259 -19.76C84.2137 -19.76 83.3283 -19.5573 82.603 -19.152C81.899 -18.7467 81.3657 -18.16 81.003 -17.392C80.6403 -16.6453 80.459 -15.7067 80.459 -14.576C80.459 -13.488 80.683 -12.5387 81.131 -11.728C81.6003 -10.9173 82.251 -10.288 83.083 -9.84C83.9363 -9.41333 84.9283 -9.2 86.059 -9.2C86.8483 -9.2 87.5737 -9.328 88.235 -9.584C88.8963 -9.84 89.611 -10.2987 90.379 -10.96L92.331 -8.24C91.755 -7.70667 91.0937 -7.248 90.347 -6.864C89.6217 -6.50133 88.8537 -6.21333 88.043 -6C87.2323 -5.78667 86.4323 -5.68 85.643 -5.68ZM98.313 -5.648C97.545 -5.648 96.9477 -5.872 96.521 -6.32C96.1157 -6.768 95.913 -7.39733 95.913 -8.208C95.913 -8.95467 96.1263 -9.56267 96.553 -10.032C97.001 -10.5227 97.5877 -10.768 98.313 -10.768C99.081 -10.768 99.6677 -10.544 100.073 -10.096C100.5 -9.66933 100.713 -9.04 100.713 -8.208C100.713 -7.46133 100.489 -6.84267 100.041 -6.352C99.6143 -5.88267 99.0383 -5.648 98.313 -5.648Z" fill="#263238"/>
<path d="M34.7117 -50.68C33.2184 -50.68 31.8744 -51.0533 30.6797 -51.8C29.5064 -52.568 28.5677 -53.6027 27.8637 -54.904C27.1811 -56.2267 26.8397 -57.7413 26.8397 -59.448C26.8397 -61.1333 27.1811 -62.6373 27.8637 -63.96C28.5464 -65.2827 29.4744 -66.3173 30.6477 -67.064C31.8424 -67.832 33.1864 -68.216 34.6797 -68.216C35.4904 -68.216 36.2691 -68.088 37.0157 -67.832C37.7837 -67.576 38.4664 -67.224 39.0637 -66.776C39.6611 -66.3493 40.1304 -65.8693 40.4717 -65.336C40.8344 -64.8027 41.0371 -64.248 41.0797 -63.672L40.0237 -63.544V-74.68H43.9597V-51H40.1517L40.0557 -54.968L40.8237 -54.904C40.8024 -54.3707 40.6104 -53.8587 40.2477 -53.368C39.9064 -52.8773 39.4584 -52.4293 38.9037 -52.024C38.3491 -51.6187 37.6984 -51.288 36.9517 -51.032C36.2264 -50.7973 35.4797 -50.68 34.7117 -50.68ZM35.4797 -54.008C36.3971 -54.008 37.2077 -54.2427 37.9117 -54.712C38.6157 -55.1813 39.1597 -55.8213 39.5437 -56.632C39.9491 -57.4427 40.1517 -58.3813 40.1517 -59.448C40.1517 -60.4933 39.9491 -61.4213 39.5437 -62.232C39.1597 -63.064 38.6157 -63.704 37.9117 -64.152C37.2077 -64.6213 36.3971 -64.856 35.4797 -64.856C34.5624 -64.856 33.7517 -64.6213 33.0477 -64.152C32.3437 -63.704 31.7891 -63.064 31.3837 -62.232C30.9997 -61.4213 30.8077 -60.4933 30.8077 -59.448C30.8077 -58.3813 30.9997 -57.4427 31.3837 -56.632C31.7891 -55.8213 32.3437 -55.1813 33.0477 -54.712C33.7517 -54.2427 34.5624 -54.008 35.4797 -54.008ZM49.1957 -51V-67.864H53.1317V-51H49.1957ZM51.1157 -71.448C50.3264 -71.448 49.7077 -71.64 49.2597 -72.024C48.8331 -72.4293 48.6197 -72.9947 48.6197 -73.72C48.6197 -74.4027 48.8437 -74.9573 49.2917 -75.384C49.7397 -75.8107 50.3477 -76.024 51.1157 -76.024C51.9264 -76.024 52.5451 -75.8213 52.9717 -75.416C53.4197 -75.032 53.6437 -74.4667 53.6437 -73.72C53.6437 -73.0587 53.4197 -72.5147 52.9717 -72.088C52.5237 -71.6613 51.9051 -71.448 51.1157 -71.448ZM66.0267 -43.64C64.7681 -43.64 63.5094 -43.832 62.2507 -44.216C61.0134 -44.6 60.0107 -45.1013 59.2427 -45.72L60.6507 -48.632C61.0987 -48.312 61.6001 -48.0347 62.1547 -47.8C62.7094 -47.5653 63.2961 -47.384 63.9147 -47.256C64.5547 -47.128 65.1841 -47.064 65.8027 -47.064C66.9334 -47.064 67.8721 -47.2453 68.6187 -47.608C69.3867 -47.9493 69.9627 -48.4827 70.3467 -49.208C70.7307 -49.912 70.9227 -50.7973 70.9227 -51.864V-54.968L71.4987 -54.744C71.3707 -54.0827 71.0187 -53.4533 70.4427 -52.856C69.8667 -52.2587 69.1414 -51.768 68.2667 -51.384C67.3921 -51.0213 66.4961 -50.84 65.5787 -50.84C63.9787 -50.84 62.5601 -51.2133 61.3227 -51.96C60.1067 -52.7067 59.1361 -53.72 58.4107 -55C57.7067 -56.3013 57.3547 -57.7947 57.3547 -59.48C57.3547 -61.1653 57.7067 -62.6587 58.4107 -63.96C59.1147 -65.2827 60.0747 -66.3173 61.2907 -67.064C62.5281 -67.832 63.9147 -68.216 65.4507 -68.216C66.0907 -68.216 66.7094 -68.1413 67.3067 -67.992C67.9041 -67.8427 68.4481 -67.6293 68.9387 -67.352C69.4507 -67.0747 69.9094 -66.7653 70.3147 -66.424C70.7201 -66.0827 71.0507 -65.72 71.3067 -65.336C71.5627 -64.952 71.7227 -64.5787 71.7867 -64.216L70.9547 -63.96L71.0187 -67.864H74.8907V-52.152C74.8907 -50.7867 74.6881 -49.5813 74.2827 -48.536C73.8774 -47.4907 73.2907 -46.6053 72.5227 -45.88C71.7547 -45.1333 70.8267 -44.5787 69.7387 -44.216C68.6507 -43.832 67.4134 -43.64 66.0267 -43.64ZM66.1867 -54.2C67.1467 -54.2 67.9894 -54.424 68.7147 -54.872C69.4614 -55.32 70.0374 -55.9387 70.4427 -56.728C70.8481 -57.5173 71.0507 -58.424 71.0507 -59.448C71.0507 -60.4933 70.8374 -61.4107 70.4107 -62.2C70.0054 -63.0107 69.4401 -63.64 68.7147 -64.088C67.9894 -64.536 67.1467 -64.76 66.1867 -64.76C65.2267 -64.76 64.3841 -64.5253 63.6587 -64.056C62.9334 -63.608 62.3574 -62.9787 61.9307 -62.168C61.5254 -61.3787 61.3227 -60.472 61.3227 -59.448C61.3227 -58.4453 61.5254 -57.5387 61.9307 -56.728C62.3574 -55.9387 62.9334 -55.32 63.6587 -54.872C64.3841 -54.424 65.2267 -54.2 66.1867 -54.2ZM80.2107 -51V-67.864H84.1467V-51H80.2107ZM82.1307 -71.448C81.3414 -71.448 80.7227 -71.64 80.2747 -72.024C79.8481 -72.4293 79.6347 -72.9947 79.6347 -73.72C79.6347 -74.4027 79.8587 -74.9573 80.3067 -75.384C80.7547 -75.8107 81.3627 -76.024 82.1307 -76.024C82.9414 -76.024 83.5601 -75.8213 83.9867 -75.416C84.4347 -75.032 84.6587 -74.4667 84.6587 -73.72C84.6587 -73.0587 84.4347 -72.5147 83.9867 -72.088C83.5387 -71.6613 82.9201 -71.448 82.1307 -71.448ZM91.2817 -51V-72.152H95.2177V-51H91.2817ZM87.9537 -64.216V-67.864H98.8977V-64.216H87.9537ZM108.427 -50.68C107.04 -50.68 105.782 -51.064 104.651 -51.832C103.52 -52.6 102.614 -53.6453 101.931 -54.968C101.248 -56.2907 100.907 -57.7947 100.907 -59.48C100.907 -61.1653 101.248 -62.6693 101.931 -63.992C102.614 -65.3147 103.542 -66.3493 104.715 -67.096C105.888 -67.8427 107.211 -68.216 108.683 -68.216C109.536 -68.216 110.315 -68.088 111.019 -67.832C111.723 -67.5973 112.342 -67.256 112.875 -66.808C113.408 -66.36 113.846 -65.848 114.187 -65.272C114.55 -64.696 114.795 -64.0773 114.923 -63.416L114.059 -63.64V-67.864H118.027V-51H114.027V-55.032L114.955 -55.192C114.806 -54.616 114.528 -54.0507 114.123 -53.496C113.739 -52.9627 113.248 -52.4827 112.651 -52.056C112.075 -51.6507 111.424 -51.32 110.699 -51.064C109.995 -50.808 109.238 -50.68 108.427 -50.68ZM109.515 -54.168C110.432 -54.168 111.243 -54.392 111.947 -54.84C112.651 -55.288 113.195 -55.9067 113.579 -56.696C113.984 -57.5067 114.187 -58.4347 114.187 -59.48C114.187 -60.504 113.984 -61.4107 113.579 -62.2C113.195 -62.9893 112.651 -63.608 111.947 -64.056C111.243 -64.504 110.432 -64.728 109.515 -64.728C108.598 -64.728 107.787 -64.504 107.083 -64.056C106.4 -63.608 105.867 -62.9893 105.483 -62.2C105.099 -61.4107 104.907 -60.504 104.907 -59.48C104.907 -58.4347 105.099 -57.5067 105.483 -56.696C105.867 -55.9067 106.4 -55.288 107.083 -54.84C107.787 -54.392 108.598 -54.168 109.515 -54.168ZM122.942 -51V-74.68H126.91V-51H122.942Z" fill="#D75023"/>
</g>
<rect width="430" height="326" transform="translate(-258 -171)" fill="#141D3A"/>
<rect x="-208" y="-12" width="333" height="51" rx="17" fill="white"/>
<circle cx="13.5" cy="13.5" r="13.5" fill="#141D3A"/>
<path d="M16.5405 18.9729L21.1621 14.2297M21.1621 14.2297L16.5405 9.48641M21.1621 14.2297L7.29724 14.2297" stroke="white" stroke-width="2" stroke-linecap="round" stroke-linejoin="round"/>
</g>
<defs>
<clipPath id="clip0_0_1">
<rect width="430" height="954" fill="white" transform="translate(-258 -252)"/>
</clipPath>
<clipPath id="clip1_0_1">
<rect width="430" height="873" fill="white" transform="translate(-258 -171)"/>
</clipPath>
</defs>
</svg>
