<svg width="1512" height="1041" viewBox="0 0 1512 1041" fill="none" xmlns="http://www.w3.org/2000/svg">
<path d="M1310.16 173.444C1343.88 308.626 1153.63 489.619 983.158 564.352C786.701 650.459 663.969 574.631 530.004 674.718C407.737 766.017 447.513 875.877 355.169 937.533C270.301 994.192 96.1713 995.256 -286.176 784.877" stroke="#E7EBFA" stroke-miterlimit="10"/>
<path d="M-281.103 765.655C96.2701 972.745 271.598 974.125 359.049 919.729C423.83 879.34 427.218 815.786 463.063 751.18C480.67 718.303 506.963 688.179 539.581 663.511C646.392 582.639 744.569 611.187 883.499 579.901C918.945 572.003 953.942 560.707 987.768 546.247C1159.83 473.209 1352.32 303.924 1324.14 171.726" stroke="#E7EBFA" stroke-miterlimit="10"/>
<path d="M-275.98 746.463C96.4077 950.242 272.842 954.082 362.672 902.015C428.702 863.738 434.775 801.934 471.652 739.328C490.24 706.908 516.655 677.186 548.883 652.428C653.773 571.875 749.224 594.436 888.054 561.742C923.359 553.487 958.234 542.256 992.121 528.231C1165.63 456.466 1360.51 299.333 1337.87 170.119" stroke="#E7EBFA" stroke-miterlimit="10"/>
<path d="M-270.867 727.326C96.452 927.755 274.066 933.996 366.415 884.273C433.73 848.038 442.396 788.077 480.379 727.413C499.894 695.488 526.401 666.171 558.211 641.333C661.291 561.048 753.777 577.756 892.636 543.571C927.839 535.008 962.641 523.849 996.613 510.23C1171.63 439.988 1368.81 294.769 1351.71 168.539" stroke="#E7EBFA" stroke-miterlimit="10"/>
<path d="M-265.803 708.082C96.5606 905.266 275.224 913.915 370.175 866.498C438.682 832.321 450.08 774.142 489.171 715.496C509.629 684.047 536.281 655.093 567.733 630.151C669.003 550.136 758.597 560.932 897.549 525.251C932.559 516.352 967.203 505.267 1001.18 492.094C1177.74 423.362 1377.21 290.036 1365.67 166.778" stroke="#E7EBFA" stroke-miterlimit="10"/>
<path d="M-260.829 688.93C96.6424 882.787 277.407 895.888 373.946 848.743C442.882 815.152 457.832 760.356 497.898 703.581C519.299 672.647 546.097 644.058 577.172 619.005C676.632 539.259 763.28 544.168 902.122 507.058C936.987 497.868 971.531 486.858 1005.54 474.099C1183.69 406.964 1385.41 285.466 1379.4 165.17" stroke="#E7EBFA" stroke-miterlimit="10"/>
<path d="M-255.606 669.666C96.7416 860.275 277.473 873.598 377.737 831.109C448.427 800.827 465.582 746.415 506.642 691.631C528.957 661.234 555.9 632.999 586.601 607.837C684.251 528.36 768.044 527.366 906.804 488.814C941.517 479.306 975.957 468.357 1009.99 456.011C1189.69 390.387 1393.73 280.867 1393.22 163.492" stroke="#E7EBFA" stroke-miterlimit="10"/>
<path d="M-250.522 650.465C96.7681 837.822 278.624 853.571 381.449 813.225C453.315 785.113 473.475 732.644 515.407 679.726C538.618 649.892 565.723 622.012 596.07 596.757C691.872 517.54 772.792 510.6 911.527 470.658C943.795 461.337 978.036 450.922 1014.49 438.031C1195.79 373.97 1402.02 276.205 1407.07 161.856" stroke="#E7EBFA" stroke-miterlimit="10"/>
<path d="M-245.438 631.263C96.9227 815.285 279.667 833.307 385.211 795.526C458.193 769.377 481.385 718.84 524.236 667.817C548.349 638.555 575.623 610.995 605.602 585.596C699.593 506.648 777.614 493.851 916.302 452.4C948.593 442.758 982.731 432.337 1019.08 419.937C1201.72 357.53 1410.32 271.564 1420.92 160.221" stroke="#E7EBFA" stroke-miterlimit="10"/>
<path d="M-240.315 612.072C97.0329 792.795 280.731 813.086 388.953 777.707C463.013 753.512 489.415 704.93 532.899 655.906C557.876 627.243 585.311 599.997 614.912 574.457C707.121 495.766 782.25 477.057 920.932 434.26C953.106 424.359 987.272 413.925 1023.5 401.995C1207.94 341.162 1418.68 267.053 1434.81 158.673" stroke="#E7EBFA" stroke-miterlimit="10"/>
<path d="M-235.232 592.87C97.1138 770.318 281.774 792.822 392.64 759.99C467.769 737.727 497.289 691.194 541.588 643.982C567.438 615.953 595.061 589.018 624.295 563.337C714.666 484.927 786.913 460.328 925.52 415.956C957.697 405.69 991.789 395.316 1027.85 383.847C1213.91 324.675 1426.85 262.341 1448.57 156.921" stroke="#E7EBFA" stroke-miterlimit="10"/>
<path d="M-230.148 573.669C97.2131 747.806 282.873 772.533 396.465 742.211C472.681 721.846 505.367 677.391 550.37 632.042C576.245 605.983 602.818 579.48 633.789 552.166C722.36 474.048 791.706 443.515 930.268 397.71C962.402 387.126 996.448 376.798 1032.44 365.753C1220.11 308.243 1435.27 257.672 1462.5 155.226" stroke="#E7EBFA" stroke-miterlimit="10"/>
<path d="M-225.062 554.468C97.2845 725.229 283.76 752.288 400.199 724.447C477.511 706.002 513.465 663.632 559.126 620.115C586.068 594.432 612.88 568.236 643.229 541.021C729.961 463.107 796.427 426.76 934.962 379.489C967.043 368.566 1001.07 358.272 1036.85 347.733C1226.13 291.941 1443.53 253.077 1476.28 153.595" stroke="#E7EBFA" stroke-miterlimit="10"/>
<path d="M-220.034 535.291C97.3949 702.816 284.94 731.884 403.932 706.684C482.311 690.093 521.572 649.895 567.871 608.166C595.928 582.889 622.941 556.993 652.548 529.904C737.526 452.311 801.016 410.013 939.634 361.224C971.71 349.993 1005.67 339.758 1041.31 329.646C1232.24 275.601 1451.84 248.458 1490.12 151.938" stroke="#E7EBFA" stroke-miterlimit="10"/>
<path d="M-214.857 516.074C97.5041 680.326 285.908 711.525 407.702 688.929C487.186 674.203 529.736 636.209 576.607 596.273C605.79 571.424 633.039 545.758 662.107 518.73C745.22 441.431 805.883 393.217 944.337 343.025C977.837 331.186 1011.72 320.723 1045.85 311.676C1238.32 259.295 1460.22 243.758 1503.97 150.302" stroke="#E7EBFA" stroke-miterlimit="10"/>
<path d="M-209.771 496.873C97.6049 657.815 287.127 691.131 411.363 671.225C491.942 658.342 537.828 622.584 585.391 584.334C615.708 559.935 643.139 534.525 671.548 507.586C752.878 430.543 810.622 376.43 948.975 324.83C982.3 312.677 1016.12 302.243 1050.24 293.592C1244.47 243.12 1468.45 239.177 1517.87 148.72" stroke="#E7EBFA" stroke-miterlimit="10"/>
<path d="M-204.687 477.671C97.686 635.336 288.277 670.585 415.216 653.433C496.815 642.374 546.104 608.925 594.127 572.44C625.588 548.513 653.172 523.293 680.959 496.452C760.451 419.691 815.341 359.675 953.723 306.583C986.884 294.145 1020.66 283.761 1054.76 275.523C1250.52 226.805 1476.75 234.535 1531.67 146.977" stroke="#E7EBFA" stroke-miterlimit="10"/>
<path d="M-199.576 458.457C97.7461 612.738 289.234 650.203 418.949 635.669C501.725 626.415 554.316 595.348 602.854 560.525C635.589 537.062 663.242 512.071 690.398 485.307C768.099 408.858 820.05 342.899 958.405 288.34C991.405 275.632 1025.15 265.296 1059.23 257.457C1256.61 210.577 1485.06 229.916 1545.51 145.32" stroke="#E7EBFA" stroke-miterlimit="10"/>
<path d="M-194.491 439.256C97.7564 590.396 290.339 629.704 422.681 617.828C506.561 610.361 562.472 581.718 611.551 548.468C645.338 525.492 673.301 500.673 699.779 474.031C775.651 397.809 824.73 325.981 963.06 270.033C995.896 257.055 1029.61 246.765 1063.66 239.326C1262.67 194.305 1493.44 225.083 1559.31 143.576" stroke="#E7EBFA" stroke-miterlimit="10"/>
<path d="M-189.407 420.054C97.9659 567.834 291.47 609.193 426.452 600.151C511.5 594.468 570.724 568.305 620.363 536.671C655.372 514.339 683.392 489.572 709.256 462.973C783.29 387.032 829.488 309.313 967.771 251.855C1000.44 238.596 1034.12 228.352 1068.15 221.325C1268.8 178.241 1501.67 220.655 1573.19 142.006" stroke="#E7EBFA" stroke-miterlimit="10"/>
<path d="M-184.285 400.863C98.0756 545.345 292.554 588.574 430.112 582.447C516.281 578.517 578.81 554.889 628.979 524.806C665.2 503.097 693.352 478.401 718.587 451.955C790.828 376.249 834.134 292.618 972.373 233.728C1004.89 220.208 1038.56 210.004 1072.56 203.362C1274.79 162.449 1509.86 216.065 1586.98 140.397" stroke="#E7EBFA" stroke-miterlimit="10"/>
<path d="M-179.231 381.675C270.9 610.841 505.652 587.317 637.843 512.83C782.149 431.52 790.649 296.917 977.165 215.436C1195.97 119.875 1504.28 223.713 1600.88 138.716" stroke="#E7EBFA" stroke-miterlimit="10"/>
</svg>
