<svg width="1511" height="988" viewBox="0 0 1511 988" fill="none" xmlns="http://www.w3.org/2000/svg">
<path d="M1292.55 194.463C1335.38 315.45 1154.43 465.635 986.661 523.038C793.318 589.175 664.186 516.103 535.008 597.712C417.106 672.151 464.447 771.096 374.93 820.875C292.66 866.62 116.445 858.828 -284.177 653.999" stroke="#E7EBFA" stroke-miterlimit="10"/>
<path d="M-279.103 638.28C116.273 839.96 293.86 849.97 378.892 806.351C441.874 773.956 441.212 718.039 473.341 662.822C489.049 634.691 513.728 609.424 545.162 589.291C648.088 523.277 749.318 553.394 887.953 532.75C923.33 527.557 958.032 519.344 991.346 508.279C1160.84 452.451 1344.81 312.709 1307.77 194.631" stroke="#E7EBFA" stroke-miterlimit="10"/>
<path d="M-273.982 622.584C116.135 821.093 295.001 833.33 382.591 791.885C446.973 761.416 449.142 707.178 482.445 653.777C499.176 626.098 524.004 601.193 555.037 580.961C656.039 515.132 754.124 539.829 892.567 517.938C927.778 512.423 962.361 504.261 995.765 493.582C1166.8 438.95 1353.98 310.052 1322.74 194.885" stroke="#E7EBFA" stroke-miterlimit="10"/>
<path d="M-268.868 606.927C115.901 802.225 296.115 816.639 386.405 777.389C452.22 748.787 457.133 696.306 491.68 644.675C509.381 617.479 534.329 592.937 564.934 572.612C664.12 506.93 758.827 526.313 897.202 503.107C932.29 497.316 966.805 489.213 1000.32 478.897C1172.99 425.685 1363.25 307.417 1337.81 195.162" stroke="#E7EBFA" stroke-miterlimit="10"/>
<path d="M-263.804 591.169C115.735 783.349 297.165 799.941 390.237 762.858C457.391 736.132 465.184 685.362 500.982 635.568C519.669 608.841 544.787 584.626 575.021 564.193C672.392 498.659 763.789 512.679 902.163 488.159C937.032 482.061 971.391 474.016 1004.94 464.094C1179.26 412.294 1372.61 304.639 1352.99 195.288" stroke="#E7EBFA" stroke-miterlimit="10"/>
<path d="M-258.83 575.476C115.535 764.466 299.375 785.09 394.07 748.329C461.695 722.143 473.302 674.539 510.207 626.447C529.881 600.223 555.168 576.339 585.015 555.79C680.568 490.406 768.602 499.082 906.769 473.297C941.473 466.935 975.734 458.952 1009.34 449.398C1185.37 399.089 1381.75 301.989 1367.92 195.535" stroke="#E7EBFA" stroke-miterlimit="10"/>
<path d="M-253.608 559.687C115.353 745.542 299.169 766.359 397.932 733.894C467.544 710.719 481.407 663.567 519.446 617.285C540.079 591.582 565.535 568.02 594.995 547.356C688.731 482.124 773.493 485.448 911.481 458.387C946.009 451.738 980.169 443.803 1013.83 434.615C1191.51 385.72 1391.02 299.312 1382.95 195.717" stroke="#E7EBFA" stroke-miterlimit="10"/>
<path d="M-248.523 543.946C115.099 726.667 300.205 749.68 401.696 719.237C472.637 698.036 489.666 652.752 528.707 608.163C550.283 583.004 575.926 559.764 605.02 539.002C696.9 473.909 778.369 471.843 916.237 443.557C948.303 436.95 982.294 429.477 1018.37 419.931C1197.77 372.498 1400.24 296.576 1398 195.937" stroke="#E7EBFA" stroke-miterlimit="10"/>
<path d="M-243.438 528.187C114.965 707.701 301.109 732.761 405.514 704.72C477.707 685.309 497.93 641.886 538.022 599.019C560.546 574.412 586.38 551.464 615.091 530.559C705.153 465.62 783.305 458.241 921.025 428.624C953.09 421.736 986.976 414.253 1022.97 405.136C1203.83 359.233 1409.46 293.848 1413.02 196.148" stroke="#E7EBFA" stroke-miterlimit="10"/>
<path d="M-238.316 512.433C114.786 688.768 302.034 715.875 409.3 690.09C482.708 672.458 506.305 630.925 547.164 589.858C570.601 565.825 596.617 543.165 624.935 522.119C713.205 457.324 788.047 444.585 925.668 413.783C957.598 406.661 991.509 399.17 1027.41 390.462C1210.19 346.043 1418.73 291.23 1428.08 196.431" stroke="#E7EBFA" stroke-miterlimit="10"/>
<path d="M-233.233 496.656C114.576 669.827 302.931 698.931 413.031 675.528C487.64 659.656 514.524 620.092 556.323 580.67C580.683 557.243 606.908 534.87 634.844 513.683C721.267 449.052 792.809 430.976 930.245 398.784C962.153 391.342 995.992 383.9 1031.76 375.592C1216.27 332.725 1427.79 288.416 1442.98 196.52" stroke="#E7EBFA" stroke-miterlimit="10"/>
<path d="M-228.148 480.866C114.381 650.841 303.879 681.951 416.894 660.901C492.72 646.761 522.941 609.194 565.569 571.456C590.079 549.771 615.269 527.729 644.856 505.193C729.47 440.739 797.69 417.286 934.98 383.834C966.821 376.111 1000.61 368.708 1036.33 360.771C1222.57 319.457 1437.08 285.64 1458.04 196.657" stroke="#E7EBFA" stroke-miterlimit="10"/>
<path d="M-223.063 465.064C114.151 631.78 304.61 664.982 420.658 646.267C497.712 633.876 531.371 598.318 574.78 562.235C600.393 540.938 625.842 519.184 654.804 496.708C737.564 432.353 802.489 403.634 939.648 368.893C971.411 360.869 1005.19 353.497 1040.72 345.998C1228.68 306.286 1446.2 282.91 1472.94 196.832" stroke="#E7EBFA" stroke-miterlimit="10"/>
<path d="M-218.034 449.266C113.967 612.85 305.622 647.869 424.413 631.613C502.66 620.914 539.803 587.442 583.969 552.975C610.735 532.097 636.404 510.621 664.621 488.223C745.62 424.077 807.145 389.968 944.279 353.901C976.015 345.606 1009.72 338.284 1045.13 331.156C1234.86 293.075 1455.35 280.146 1487.87 196.975" stroke="#E7EBFA" stroke-miterlimit="10"/>
<path d="M-212.858 433.419C113.772 593.825 306.414 630.756 428.197 616.941C507.675 607.942 548.284 576.587 593.14 543.736C621.069 523.297 646.99 502.041 674.663 479.675C753.785 415.709 812.064 376.253 948.927 338.949C982.062 330.193 1015.67 322.667 1049.62 316.403C1241.01 279.876 1464.53 277.293 1502.78 197.117" stroke="#E7EBFA" stroke-miterlimit="10"/>
<path d="M-207.772 417.564C113.565 574.759 307.454 613.602 431.867 602.282C512.561 594.965 556.685 565.755 602.344 534.433C631.447 514.453 657.565 493.437 684.573 471.123C761.9 407.311 816.839 362.522 953.495 323.983C986.429 314.943 1019.98 307.443 1053.93 301.528C1247.2 266.78 1473.55 274.518 1517.73 197.29" stroke="#E7EBFA" stroke-miterlimit="10"/>
<path d="M-202.688 401.687C113.336 555.695 308.405 596.282 435.713 587.526C517.547 581.869 565.255 554.873 611.488 525.138C641.775 505.637 668.056 484.803 694.438 462.551C769.914 398.916 821.579 348.798 958.15 308.958C990.895 299.662 1024.4 292.206 1058.36 286.656C1253.25 253.54 1482.61 271.67 1532.53 197.295" stroke="#E7EBFA" stroke-miterlimit="10"/>
<path d="M-197.577 385.258C112.95 535.833 308.961 578.36 439.173 572.057C522.269 568.053 573.442 543.353 620.277 515.145C651.865 496.142 678.216 475.54 703.95 453.353C777.593 389.987 825.877 334.56 962.251 293.481C994.797 283.951 1028.25 276.545 1062.2 271.352C1258.74 239.977 1490.96 268.406 1546.64 197.01" stroke="#E7EBFA" stroke-miterlimit="10"/>
<path d="M-192.491 368.813C112.525 516.168 309.647 560.309 442.609 556.481C526.886 554.107 581.54 531.736 628.995 504.976C661.658 486.478 688.319 466.071 713.361 443.988C785.127 380.816 830.103 320.166 966.282 277.921C998.628 268.159 1032.03 260.802 1065.96 255.966C1264.16 226.348 1499.32 264.901 1560.64 196.588" stroke="#E7EBFA" stroke-miterlimit="10"/>
<path d="M-187.408 352.357C112.287 496.316 310.353 542.239 446.082 541.033C531.602 540.286 589.729 520.285 637.824 495.008C671.743 477.162 698.448 456.832 722.858 434.786C792.743 371.857 834.402 305.98 970.356 262.466C1002.49 252.463 1035.85 245.154 1069.76 240.686C1269.62 212.888 1507.51 261.7 1574.68 196.269" stroke="#E7EBFA" stroke-miterlimit="10"/>
<path d="M-182.286 335.918C111.957 476.539 311.006 524.085 449.439 525.563C536.151 526.407 597.739 508.819 646.441 484.962C681.602 467.746 708.428 447.512 732.197 425.6C800.245 362.874 838.581 291.765 974.314 247.053C1006.26 236.827 1039.58 229.563 1073.48 225.437C1274.94 199.657 1515.63 258.323 1588.6 195.873" stroke="#E7EBFA" stroke-miterlimit="10"/>
<path d="M-177.231 319.487C291.478 542.336 526.741 533.42 655.29 474.823C795.621 410.859 795.556 293.526 978.449 231.51C1193.01 158.781 1510.63 264.94 1602.6 195.38" stroke="#E7EBFA" stroke-miterlimit="10"/>
</svg>
