<svg width="430" height="842" viewBox="0 0 430 842" fill="none" xmlns="http://www.w3.org/2000/svg">
<path d="M361.737 189.977C408.675 244.265 374.255 353.204 322.064 412.342C261.913 480.485 192.686 466.023 161.769 530.694C133.541 589.697 176.8 631.91 153.697 673.26C132.464 711.261 60.7741 738.548 -148.578 704.866" stroke="#E7EBFA" stroke-miterlimit="10"/>
<path d="M-151.175 695.627C55.319 728.627 128.101 702.232 150.954 664.829C167.86 637.081 153.742 608.595 152.779 574.648C152.027 557.47 155.536 540.166 162.991 524.288C187.379 472.254 234.915 469.695 284.682 434.532C297.4 425.597 309.103 415.237 319.549 403.665C372.813 345.028 411.014 240.897 367.093 187.069" stroke="#E7EBFA" stroke-miterlimit="10"/>
<path d="M-153.744 686.394C49.8819 718.705 123.722 693.222 148.127 656.477C166.064 629.465 153.483 601.336 153.435 568.11C153.199 550.982 156.857 533.836 164.128 517.979C187.801 466.381 232.749 461.608 282.131 425.84C294.703 416.771 306.371 406.458 316.949 395.068C371.118 336.769 413.278 237.615 372.374 184.247" stroke="#E7EBFA" stroke-miterlimit="10"/>
<path d="M-156.304 677.185C44.4088 708.804 119.323 684.195 145.34 648.094C164.307 621.783 153.248 594.065 154.13 561.523C154.399 544.47 158.194 527.488 165.273 511.66C188.263 460.459 230.557 453.567 279.586 417.139C292.042 407.95 303.697 397.68 314.409 386.455C369.577 328.593 415.594 234.328 377.706 181.42" stroke="#E7EBFA" stroke-miterlimit="10"/>
<path d="M-158.91 667.938C38.9633 698.892 114.899 675.181 142.555 639.694C162.517 614.105 153.021 586.75 154.854 554.925C155.628 537.937 159.572 521.092 166.478 505.274C188.785 454.47 228.442 445.422 277.144 408.322C289.437 399.014 301.046 388.801 311.867 377.772C368.042 320.337 417.907 230.953 383.044 178.496" stroke="#E7EBFA" stroke-miterlimit="10"/>
<path d="M-161.53 658.745C33.5088 688.988 111.399 666.913 139.778 631.301C160.06 605.903 152.858 579.49 155.551 548.338C156.841 531.431 160.933 514.725 167.657 498.916C189.282 448.509 226.283 437.324 274.592 399.612C286.754 390.199 298.34 380.034 309.276 369.183C366.495 312.206 420.18 227.679 388.324 175.674" stroke="#E7EBFA" stroke-miterlimit="10"/>
<path d="M-164.078 649.464C28.0516 679.067 105.983 657.095 137.037 622.957C158.852 598.746 152.655 572.162 156.245 541.734C158.044 524.922 162.282 508.349 168.825 492.549C189.768 442.54 224.148 429.197 272.071 390.864C284.092 381.334 295.65 371.212 306.698 360.538C364.924 303.988 422.493 224.374 393.627 172.805" stroke="#E7EBFA" stroke-miterlimit="10"/>
<path d="M-166.664 640.233C22.5814 669.184 101.569 648.106 134.205 614.517C157.036 591.079 152.555 564.888 156.961 535.146C159.267 518.444 163.66 502.002 170.033 486.216C190.276 436.606 222.017 421.089 269.59 382.148C280.647 373.077 292.252 363.221 304.169 351.934C363.439 295.825 424.783 221.046 398.951 169.953" stroke="#E7EBFA" stroke-miterlimit="10"/>
<path d="M-169.252 631.001C17.1417 659.244 97.0518 639.029 131.437 606.15C155.209 583.404 152.452 557.596 157.7 528.546C160.519 511.957 165.059 495.63 171.245 479.837C190.806 430.624 219.919 412.977 267.104 373.379C278.092 364.163 289.654 354.32 301.644 343.266C361.873 287.678 427.079 217.725 404.273 167.101" stroke="#E7EBFA" stroke-miterlimit="10"/>
<path d="M-171.822 621.768C11.6963 649.331 92.5545 629.968 128.633 597.733C153.327 575.681 152.374 550.238 158.372 521.97C161.694 505.512 166.378 489.298 172.373 473.502C191.26 424.676 217.735 404.873 264.588 364.684C275.465 355.372 287.035 345.519 299.09 334.691C360.449 279.517 429.432 214.452 409.634 164.28" stroke="#E7EBFA" stroke-miterlimit="10"/>
<path d="M-174.409 612.536C6.24125 639.429 88.0375 620.891 125.83 589.37C151.438 568.004 152.274 542.982 159.05 515.386C162.888 499.072 167.725 482.967 173.534 467.164C191.731 418.745 215.577 396.795 262.015 355.924C272.804 346.451 284.357 336.636 296.459 326.035C358.891 271.344 431.657 211.121 414.892 161.39" stroke="#E7EBFA" stroke-miterlimit="10"/>
<path d="M-176.996 603.304C0.786895 629.508 83.5388 611.794 123.071 580.958C149.591 560.259 152.243 535.664 159.765 508.78C164.094 493.329 168.603 477.574 174.731 460.787C192.255 412.773 213.453 388.658 259.523 347.164C270.216 337.558 281.762 327.77 293.936 317.367C357.44 263.159 433.998 207.769 420.232 158.5" stroke="#E7EBFA" stroke-miterlimit="10"/>
<path d="M-179.583 594.073C-4.6963 619.563 78.9618 602.75 120.277 572.567C147.718 552.544 152.229 528.363 160.471 502.183C165.332 486.733 170.015 471.078 175.91 454.429C192.724 406.788 211.313 380.559 257.013 338.424C267.602 328.677 279.149 318.906 291.362 308.758C355.948 255.058 436.288 204.476 425.529 155.66" stroke="#E7EBFA" stroke-miterlimit="10"/>
<path d="M-182.187 584.86C-10.123 609.684 74.4679 593.59 117.482 564.175C145.817 544.804 152.225 521.07 161.167 495.579C166.588 480.136 171.427 464.581 177.046 448.102C193.214 400.873 209.12 372.483 254.485 329.667C264.996 319.785 276.527 310.052 288.785 300.114C354.481 246.928 438.594 201.163 430.843 152.799" stroke="#E7EBFA" stroke-miterlimit="10"/>
<path d="M-184.741 575.607C-15.5698 599.771 69.8959 584.483 114.704 555.783C143.951 537.062 152.256 513.791 161.872 489C167.863 473.572 172.856 458.082 178.268 441.713C193.736 394.901 207.03 364.344 251.983 320.935C262.935 310.567 274.379 300.745 286.272 291.508C353.014 238.817 440.907 197.806 436.165 149.947" stroke="#E7EBFA" stroke-miterlimit="10"/>
<path d="M-187.327 566.376C-21.0233 589.852 65.4215 575.322 111.895 547.43C142.045 529.351 152.274 506.55 162.588 482.395C169.157 466.99 174.288 451.585 179.448 435.356C194.243 388.931 204.89 356.228 249.458 312.215C260.261 301.736 271.689 291.936 283.672 282.876C351.605 230.753 443.19 194.523 441.527 147.109" stroke="#E7EBFA" stroke-miterlimit="10"/>
<path d="M-189.915 557.144C-26.4793 579.948 60.8789 566.104 109.142 539.007C140.158 521.574 152.358 499.265 163.292 475.815C170.45 460.442 175.69 445.097 180.618 429.007C194.721 382.989 202.748 348.128 246.964 303.455C257.629 292.875 269.052 283.103 281.13 274.227C350.12 222.642 445.486 191.201 446.802 144.216" stroke="#E7EBFA" stroke-miterlimit="10"/>
<path d="M-192.495 547.902C-31.9723 569.995 56.2978 556.989 106.347 530.616C138.291 513.796 152.435 492.026 163.989 469.229C171.786 453.863 177.11 438.608 181.796 422.649C195.236 377.045 200.597 340.021 244.444 294.707C254.977 284.033 266.395 274.288 278.562 265.591C348.673 214.564 447.791 187.889 452.115 141.356" stroke="#E7EBFA" stroke-miterlimit="10"/>
<path d="M-195.082 538.671C-37.4233 560.164 51.7491 547.799 103.533 522.192C136.369 505.988 152.478 484.774 164.638 462.585C172.989 447.272 178.484 432.044 182.919 416.244C195.659 371.021 198.4 331.857 241.897 285.935C252.297 275.168 263.713 265.449 275.968 256.931C347.208 206.471 450.075 184.472 457.392 138.464" stroke="#E7EBFA" stroke-miterlimit="10"/>
<path d="M-197.67 529.439C-42.845 550.204 47.2088 538.599 100.775 513.832C134.529 498.233 152.613 477.6 165.399 456.036C174.412 440.818 179.943 425.605 184.136 409.918C196.184 365.102 196.297 323.79 239.406 277.211C249.667 266.346 261.084 256.65 273.428 248.318C345.818 198.458 452.395 181.256 462.743 135.635" stroke="#E7EBFA" stroke-miterlimit="10"/>
<path d="M-200.239 520.206C-48.2908 540.291 42.6224 529.36 97.965 505.479C132.61 490.479 152.678 470.452 166.063 449.489C175.729 434.358 181.331 419.156 185.301 403.633C196.666 359.196 194.141 315.729 236.881 268.526C247.016 257.57 258.436 247.895 270.864 239.735C344.435 190.588 454.659 177.974 468.049 132.803" stroke="#E7EBFA" stroke-miterlimit="10"/>
<path d="M-202.836 510.984C39.1108 542.493 130.366 495.988 166.8 442.854C206.574 384.852 177.221 324.318 234.394 259.74C301.473 183.993 454.217 182.2 473.378 129.924" stroke="#E7EBFA" stroke-miterlimit="10"/>
</svg>
