<svg width="35" height="36" viewBox="0 0 35 36" fill="none" xmlns="http://www.w3.org/2000/svg">
<path d="M7.24843 18C7.24843 23.6865 11.8575 28.2941 17.5425 28.2941C23.2276 28.2941 27.8367 23.6865 27.8367 18C27.8367 12.3135 23.229 7.70588 17.5425 7.70588C11.8575 7.70588 7.24843 12.3135 7.24843 18ZM17.5425 0.5L14.6478 6.29078H20.4386L17.5425 0.5ZM29.912 5.58804L23.7698 7.63451L27.8627 11.7288L29.912 5.58804ZM11.3153 7.63451L5.17451 5.58804L7.22098 11.7302L11.3153 7.63451ZM5.79078 15.0614L0 17.9575L5.79078 20.8522V15.0614ZM29.2092 20.9386L35 18.0439L29.2092 15.1492V20.9386ZM17.5425 35.5L20.4373 29.7092H14.6465L17.5425 35.5ZM23.7698 28.3655L29.912 30.412L27.8641 24.2698L23.7698 28.3655ZM5.17451 30.412L11.3167 28.3655L7.22235 24.2712L5.17451 30.412Z" fill="#141D3A"/>
</svg>
