<svg width="28" height="36" viewBox="0 0 28 36" fill="none" xmlns="http://www.w3.org/2000/svg">
<path d="M7.08174 25.4975C6.4481 24.8865 6.77841 25.0587 5.25009 24.6643C4.55666 24.485 3.94708 24.1405 3.39584 23.7278L0.0876432 31.5492C-0.232458 32.3064 0.365453 33.1291 1.21274 33.0981L5.05468 32.9568L7.69715 35.6483C8.28047 36.2417 9.30421 36.0568 9.62432 35.2996L13.4196 26.3265C12.6292 26.7511 11.752 27 10.8449 27C9.42307 27 8.08725 26.4664 7.08174 25.4975ZM27.9124 31.5492L24.6042 23.7278C24.0529 24.1412 23.4433 24.485 22.7499 24.6643C21.2136 25.0608 21.5504 24.8879 20.9183 25.4975C19.9128 26.4664 18.5762 27 17.1543 27C16.2473 27 15.3701 26.7504 14.5797 26.3265L18.375 35.2996C18.6951 36.0568 19.7195 36.2417 20.3021 35.6483L22.9453 32.9568L26.7873 33.0981C27.6345 33.1291 28.2325 32.3057 27.9124 31.5492ZM19.177 23.9063C20.2912 22.813 20.4188 22.9072 22.0054 22.4903C23.0182 22.2238 23.8101 21.4469 24.0814 20.4527C24.6268 18.4558 24.4853 18.697 25.9735 17.2359C26.7151 16.5082 27.0046 15.4472 26.7333 14.453C26.1886 12.4576 26.1879 12.736 26.7333 10.7385C27.0046 9.74428 26.7151 8.68328 25.9735 7.95556C24.4853 6.4945 24.6268 6.73496 24.0814 4.73883C23.8101 3.74463 23.0182 2.9677 22.0054 2.70122C19.9725 2.16615 20.2175 2.30607 18.7279 0.8443C17.9863 0.11658 16.905 -0.16818 15.8922 0.0982993C13.86 0.632664 14.1436 0.633367 12.1078 0.0982993C11.095 -0.16818 10.0137 0.115877 9.27213 0.8443C7.78392 2.30537 8.02892 2.16615 5.99529 2.70122C4.98249 2.9677 4.19062 3.74463 3.91937 4.73883C3.37469 6.73496 3.51542 6.4945 2.02721 7.95556C1.28565 8.68328 0.995446 9.74428 1.26742 10.7385C1.8121 12.7325 1.81283 12.4541 1.26742 14.4523C0.996175 15.4465 1.28565 16.5075 2.02721 17.2359C3.51542 18.697 3.37396 18.4558 3.91937 20.4527C4.19062 21.4469 4.98249 22.2238 5.99529 22.4903C7.62715 22.9192 7.74892 22.8517 8.82297 23.9063C9.78765 24.8534 11.2904 25.0229 12.4498 24.3156C12.9134 24.0317 13.4512 23.881 14.0004 23.881C14.5495 23.881 15.0873 24.0317 15.5509 24.3156C16.7096 25.0229 18.2124 24.8534 19.177 23.9063ZM7.12111 12.3725C7.12111 8.64391 10.2011 5.62124 14 5.62124C17.7989 5.62124 20.8789 8.64391 20.8789 12.3725C20.8789 16.1011 17.7989 19.1238 14 19.1238C10.2011 19.1238 7.12111 16.1011 7.12111 12.3725Z" fill="#103ACC"/>
</svg>
