<svg width="53" height="54" viewBox="0 0 53 54" fill="none" xmlns="http://www.w3.org/2000/svg">
<rect width="53" height="54" fill="#1E1E1E"/>
<g clip-path="url(#clip0_0_1)">
<rect width="1512" height="7376" transform="translate(-1060 -333)" fill="white"/>
<g clip-path="url(#clip1_0_1)">
<rect width="1512" height="1041" transform="translate(-1060 -333)" fill="white"/>
<path d="M250.164 -159.556C283.88 -24.3738 93.6293 156.619 -76.842 231.352C-273.299 317.459 -396.031 241.631 -529.996 341.718C-652.263 433.017 -612.487 542.877 -704.831 604.533C-789.699 661.192 -963.829 662.256 -1346.18 451.877" stroke="#E7EBFA" stroke-miterlimit="10"/>
<path d="M-1341.1 432.655C-963.73 639.745 -788.402 641.125 -700.951 586.729C-636.17 546.34 -632.783 482.786 -596.938 418.18C-579.331 385.303 -553.038 355.179 -520.419 330.511C-413.608 249.639 -315.432 278.187 -176.502 246.901C-141.055 239.003 -106.059 227.707 -72.2324 213.247C99.8337 140.209 292.318 -29.0763 264.14 -161.274" stroke="#E7EBFA" stroke-miterlimit="10"/>
<path d="M-1335.98 413.463C-963.592 617.242 -787.158 621.082 -697.328 569.015C-631.298 530.738 -625.225 468.934 -588.348 406.328C-569.76 373.908 -543.345 344.186 -511.117 319.428C-406.227 238.875 -310.776 261.436 -171.946 228.742C-136.641 220.487 -101.766 209.256 -67.8789 195.231C105.625 123.466 300.511 -33.6674 277.87 -162.881" stroke="#E7EBFA" stroke-miterlimit="10"/>
<path d="M-1330.87 394.326C-963.548 594.755 -785.934 600.996 -693.585 551.273C-626.271 515.038 -617.605 455.077 -579.621 394.413C-560.106 362.488 -533.599 333.171 -501.789 308.333C-398.709 228.048 -306.223 244.756 -167.365 210.571C-132.161 202.008 -97.3592 190.849 -63.3876 177.23C111.634 106.988 308.813 -38.2314 291.71 -164.461" stroke="#E7EBFA" stroke-miterlimit="10"/>
<path d="M-1325.8 375.082C-963.439 572.266 -784.776 580.915 -689.825 533.498C-621.318 499.321 -609.92 441.142 -570.83 382.496C-550.372 351.047 -523.719 322.093 -492.267 297.151C-390.998 217.136 -301.403 227.932 -162.451 192.251C-127.441 183.352 -92.7968 172.267 -58.824 159.094C117.742 90.3625 317.206 -42.9642 305.668 -166.222" stroke="#E7EBFA" stroke-miterlimit="10"/>
<path d="M-1320.83 355.93C-963.358 549.787 -782.593 562.888 -686.055 515.743C-617.118 482.152 -602.168 427.356 -562.103 370.581C-540.701 339.647 -513.904 311.058 -482.828 286.005C-383.369 206.259 -296.721 211.168 -157.879 174.058C-123.013 164.868 -88.4693 153.858 -54.4623 141.099C123.688 73.9645 325.407 -47.5342 319.396 -167.83" stroke="#E7EBFA" stroke-miterlimit="10"/>
<path d="M-1315.61 336.666C-963.258 527.275 -782.526 540.598 -682.263 498.109C-611.572 467.827 -594.418 413.415 -553.357 358.631C-531.043 328.234 -504.1 299.999 -473.399 274.837C-375.749 195.36 -291.955 194.366 -153.196 155.814C-118.483 146.306 -84.0424 135.357 -50.0092 123.011C129.686 57.3869 333.728 -52.1327 333.225 -169.508" stroke="#E7EBFA" stroke-miterlimit="10"/>
<path d="M-1310.52 317.465C-963.232 504.822 -781.375 520.571 -678.55 480.225C-606.684 452.113 -586.525 399.644 -544.592 346.726C-521.381 316.892 -494.277 289.012 -463.93 263.757C-368.128 184.54 -287.208 177.6 -148.473 137.658C-116.204 128.337 -81.9639 117.922 -45.5068 105.031C135.79 40.9702 342.021 -56.7954 347.075 -171.144" stroke="#E7EBFA" stroke-miterlimit="10"/>
<path d="M-1305.44 298.263C-963.077 482.285 -780.333 500.307 -674.789 462.526C-601.807 436.377 -578.615 385.84 -535.764 334.817C-511.651 305.555 -484.377 277.995 -454.398 252.596C-360.407 173.648 -282.386 160.851 -143.698 119.4C-111.407 109.758 -77.2694 99.3365 -40.9242 86.9372C141.715 24.5296 350.322 -61.4362 360.923 -172.779" stroke="#E7EBFA" stroke-miterlimit="10"/>
<path d="M-1300.32 279.072C-962.967 459.795 -779.269 480.086 -671.047 444.707C-596.987 420.512 -570.585 371.93 -527.101 322.906C-502.124 294.243 -474.689 266.997 -445.089 241.457C-352.879 162.766 -277.751 144.057 -139.068 101.26C-106.894 91.3585 -72.7284 80.925 -36.505 68.9955C147.941 8.16224 358.683 -65.9474 374.811 -174.327" stroke="#E7EBFA" stroke-miterlimit="10"/>
<path d="M-1295.23 259.87C-962.886 437.318 -778.226 459.822 -667.36 426.99C-592.231 404.727 -562.711 358.194 -518.412 310.982C-492.562 282.953 -464.939 256.018 -435.705 230.337C-345.334 151.927 -273.087 127.328 -134.48 82.9558C-102.303 72.6902 -68.2107 62.3156 -32.1464 50.8468C153.913 -8.32485 366.852 -70.6588 388.573 -176.079" stroke="#E7EBFA" stroke-miterlimit="10"/>
<path d="M-1290.15 240.669C-962.787 414.806 -777.127 439.533 -663.535 409.211C-587.319 388.846 -554.633 344.391 -509.63 299.042C-483.755 272.983 -457.182 246.48 -426.211 219.166C-337.64 141.048 -268.294 110.515 -129.732 64.7097C-97.5984 54.1262 -63.5517 43.7981 -27.5635 32.7526C160.109 -24.7575 375.274 -75.3282 402.495 -177.774" stroke="#E7EBFA" stroke-miterlimit="10"/>
<path d="M-1285.06 221.468C-962.716 392.229 -776.241 419.288 -659.801 391.447C-582.489 373.002 -546.535 330.632 -500.875 287.115C-473.932 261.432 -447.12 235.236 -416.771 208.021C-330.039 130.107 -263.574 93.7604 -125.039 46.4888C-92.9578 35.5658 -58.9292 25.2717 -23.1457 14.7335C166.131 -41.0594 383.531 -79.9225 416.279 -179.405" stroke="#E7EBFA" stroke-miterlimit="10"/>
<path d="M-1280.03 202.291C-962.605 369.816 -775.059 398.884 -656.068 373.684C-577.689 357.093 -538.427 316.895 -492.129 275.166C-464.071 249.889 -437.059 223.993 -407.452 196.904C-322.474 119.311 -258.984 77.0126 -120.365 28.2245C-88.2898 16.9927 -54.3345 6.75758 -18.6922 -3.35405C172.236 -57.399 391.843 -84.5421 430.119 -181.062" stroke="#E7EBFA" stroke-miterlimit="10"/>
<path d="M-1274.86 183.074C-962.496 347.326 -774.092 378.525 -652.298 355.929C-572.814 341.203 -530.264 303.209 -483.393 263.273C-454.211 238.424 -426.961 212.758 -397.893 185.73C-314.78 108.431 -254.117 60.2174 -115.663 10.0249C-82.1636 -1.81367 -48.2827 -12.2772 -14.1538 -21.3245C178.322 -73.7046 400.217 -89.242 443.967 -182.698" stroke="#E7EBFA" stroke-miterlimit="10"/>
<path d="M-1269.77 163.873C-962.395 324.815 -772.873 358.131 -648.637 338.225C-568.058 325.342 -522.172 289.584 -474.609 251.334C-444.292 226.935 -416.86 201.525 -388.452 174.586C-307.122 97.5434 -249.378 43.4299 -111.024 -8.17036C-77.6996 -20.3231 -43.8761 -30.7571 -9.76397 -39.4077C184.469 -89.8797 408.447 -93.8233 457.874 -184.28" stroke="#E7EBFA" stroke-miterlimit="10"/>
<path d="M-1264.69 144.671C-962.314 302.336 -771.723 337.585 -644.783 320.433C-563.185 309.374 -513.896 275.925 -465.872 239.44C-434.411 215.513 -406.827 190.293 -379.04 163.452C-299.548 86.6914 -244.658 26.6749 -106.277 -26.4169C-73.1155 -38.8549 -39.3346 -49.2394 -5.23634 -57.4774C190.518 -106.195 416.749 -98.465 471.674 -186.023" stroke="#E7EBFA" stroke-miterlimit="10"/>
<path d="M-1259.58 125.457C-962.254 279.738 -770.766 317.203 -641.052 302.669C-558.275 293.415 -505.685 262.348 -457.147 227.525C-424.411 204.062 -396.758 179.071 -369.603 152.307C-291.901 75.8583 -239.95 9.89902 -101.595 -44.6595C-68.5953 -57.3677 -34.853 -67.7038 -0.774908 -75.5433C196.605 -122.423 425.059 -103.084 485.512 -187.68" stroke="#E7EBFA" stroke-miterlimit="10"/>
<path d="M-1254.49 106.256C-962.244 257.396 -769.661 296.704 -637.319 284.828C-553.439 277.361 -497.528 248.718 -448.449 215.468C-414.662 192.492 -386.699 167.673 -360.221 141.031C-284.349 64.809 -235.27 -7.01929 -96.9403 -62.9673C-64.1036 -75.9454 -30.3945 -86.2347 3.65958 -93.6742C202.675 -138.695 433.442 -107.917 499.313 -189.424" stroke="#E7EBFA" stroke-miterlimit="10"/>
<path d="M-1249.41 87.0543C-962.034 234.834 -768.53 276.193 -633.548 267.151C-548.5 261.468 -489.276 235.305 -439.637 203.671C-404.628 181.339 -376.608 156.572 -350.743 129.973C-276.71 54.0319 -230.512 -23.687 -92.2288 -81.1449C-59.5601 -94.4038 -25.8772 -104.648 8.15095 -111.675C208.802 -154.759 441.672 -112.345 513.19 -190.994" stroke="#E7EBFA" stroke-miterlimit="10"/>
<path d="M-1244.29 67.8629C-961.924 212.345 -767.445 255.574 -629.888 249.447C-543.719 245.517 -481.19 221.889 -431.02 191.806C-394.799 170.097 -366.647 145.401 -341.413 118.955C-269.171 43.2493 -225.865 -40.3816 -87.6271 -99.2722C-55.1118 -112.792 -21.444 -122.996 12.5603 -129.638C214.787 -170.551 449.864 -116.935 526.984 -192.603" stroke="#E7EBFA" stroke-miterlimit="10"/>
<path d="M-1239.23 48.6745C-789.1 277.841 -554.347 254.317 -422.157 179.83C-277.85 98.5198 -269.351 -36.0831 -82.8348 -117.564C135.974 -213.125 444.278 -109.287 540.877 -194.284" stroke="#E7EBFA" stroke-miterlimit="10"/>
<rect x="-184.174" y="27.3062" width="261.983" height="268.472" rx="8.96975" fill="#1F2E5F"/>
<ellipse cx="26.282" cy="27.1154" rx="26.0008" ry="26.1618" fill="#F84A23"/>
<path opacity="0.4" fill-rule="evenodd" clip-rule="evenodd" d="M36.9199 35.2694C37.3626 34.8239 38.0803 34.8239 38.523 35.2694L42.3016 39.0714C42.7443 39.5168 42.7443 40.239 42.3016 40.6844C41.859 41.1299 41.1412 41.1299 40.6985 40.6844L36.9199 36.8824C36.4772 36.437 36.4772 35.7148 36.9199 35.2694Z" fill="white"/>
<ellipse cx="32.4319" cy="30.7532" rx="9.06866" ry="9.12481" fill="white"/>
<path opacity="0.4" fill-rule="evenodd" clip-rule="evenodd" d="M10.1377 30.7532C10.1377 30.1232 10.6452 29.6125 11.2713 29.6125H18.8285C19.4546 29.6125 19.9621 30.1232 19.9621 30.7532C19.9621 31.3831 19.4546 31.8938 18.8285 31.8938H11.2713C10.6452 31.8938 10.1377 31.3831 10.1377 30.7532Z" fill="white"/>
<path opacity="0.4" fill-rule="evenodd" clip-rule="evenodd" d="M10.1377 23.1491C10.1377 22.5192 10.6452 22.0085 11.2713 22.0085H18.8285C19.4546 22.0085 19.9621 22.5192 19.9621 23.1491C19.9621 23.7791 19.4546 24.2897 18.8285 24.2897H11.2713C10.6452 24.2897 10.1377 23.7791 10.1377 23.1491Z" fill="white"/>
<path opacity="0.4" fill-rule="evenodd" clip-rule="evenodd" d="M10.1377 15.5451C10.1377 14.9152 10.6452 14.4045 11.2713 14.4045H30.92C31.5461 14.4045 32.0536 14.9152 32.0536 15.5451C32.0536 16.1751 31.5461 16.6857 30.92 16.6857H11.2713C10.6452 16.6857 10.1377 16.1751 10.1377 15.5451Z" fill="white"/>
</g>
</g>
<defs>
<clipPath id="clip0_0_1">
<rect width="1512" height="7376" fill="white" transform="translate(-1060 -333)"/>
</clipPath>
<clipPath id="clip1_0_1">
<rect width="1512" height="1041" fill="white" transform="translate(-1060 -333)"/>
</clipPath>
</defs>
</svg>
