<svg width="391" height="1584" viewBox="0 0 391 1584" fill="none" xmlns="http://www.w3.org/2000/svg">
<path d="M-323.054 143.507C-203.03 322.262 85.27 573.254 278.286 147.181" stroke="white"/>
<path d="M269.36 1608.07C149.337 1429.32 -138.963 1178.32 -331.979 1604.4" stroke="white"/>
<path d="M-315.74 161.588C-190.549 334.031 104.935 570.021 285.336 134.43" stroke="white"/>
<path d="M-308.427 179.669C-178.255 345.542 123.967 566.174 291.481 121.721" stroke="white"/>
<path d="M-301.112 197.75C-166.156 356.802 142.35 561.746 296.725 109.098" stroke="white"/>
<path d="M-293.799 215.831C-154.261 367.824 160.065 556.77 301.069 96.6095" stroke="white"/>
<path d="M-286.486 233.912C-142.577 378.617 177.096 551.281 304.518 84.2998" stroke="white"/>
<path d="M-279.171 251.993C-131.107 389.192 193.433 545.315 307.08 72.215" stroke="white"/>
<path d="M-271.858 270.074C-119.862 399.561 209.056 538.908 308.757 60.4009" stroke="white"/>
<path d="M-264.543 288.155C-108.843 409.735 223.959 532.096 309.564 48.9019" stroke="white"/>
<path d="M-257.229 306.236C-98.0598 419.726 238.125 524.917 309.506 37.7629" stroke="white"/>
<path d="M-249.917 324.317C-87.5172 429.547 251.545 517.41 308.595 27.0278" stroke="white"/>
<path d="M-242.604 342.398C-77.2179 439.209 264.211 509.612 306.844 16.7397" stroke="white"/>
<path d="M-235.288 360.479C-67.1653 448.726 276.118 501.563 304.269 6.94159" stroke="white"/>
<path d="M-227.977 378.56C-57.3696 458.11 287.251 493.302 300.878 -2.3249" stroke="white"/>
<path d="M-220.66 396.641C-47.8256 467.374 297.614 484.867 296.697 -11.0187" stroke="white"/>
<path d="M-213.348 414.722C-38.5454 476.532 307.194 476.3 291.733 -19.0989" stroke="white"/>
<path d="M-206.033 432.804C-29.5262 485.597 315.993 467.641 286.013 -26.5269" stroke="white"/>
<path d="M-198.721 450.884C-20.7744 494.582 324.004 458.929 279.55 -33.2641" stroke="white"/>
<path d="M-191.405 468.966C-12.2874 503.502 331.233 450.205 272.37 -39.2726" stroke="white"/>
<path d="M-184.094 487.047C-4.07369 512.37 337.671 441.51 264.489 -44.5171" stroke="white"/>
<path d="M-176.777 505.128C3.87416 521.199 343.329 432.882 255.938 -48.9622" stroke="white"/>
<path d="M-169.466 523.209C11.5454 530.005 348.201 424.363 246.732 -52.5736" stroke="white"/>
<path d="M-162.151 541.29C18.9473 538.8 352.296 415.994 236.902 -55.3188" stroke="white"/>
<path d="M-154.837 559.371C26.0769 547.599 355.618 407.812 226.472 -57.167" stroke="white"/>
<path d="M-147.522 577.452C32.9343 556.416 358.172 399.859 215.469 -58.0878" stroke="white"/>
<path d="M-140.211 595.533C39.5173 565.265 359.962 392.172 203.917 -58.0524" stroke="white"/>
<path d="M-132.896 613.614C45.8339 574.159 361.004 384.792 191.851 -57.0345" stroke="white"/>
<path d="M-125.582 631.695C51.8798 583.112 361.302 377.756 179.294 -55.0072" stroke="white"/>
<path d="M-118.27 649.776C57.6578 592.138 360.866 371.101 166.279 -51.9477" stroke="white"/>
<path d="M-110.955 667.857C63.1731 601.251 359.711 364.866 152.837 -47.8326" stroke="white"/>
<path d="M-103.641 685.938C68.4265 610.465 357.848 359.086 138.998 -42.6406" stroke="white"/>
<path d="M-96.3271 704.019C73.42 619.792 355.29 353.798 124.793 -36.3529" stroke="white"/>
<path d="M-89.0127 722.1C78.1593 629.245 352.054 349.037 110.257 -28.9522" stroke="white"/>
<path d="M-81.7002 740.181C82.6452 638.838 348.153 344.837 95.4194 -20.4212" stroke="white"/>
<path d="M-74.3857 758.262C86.8859 648.584 343.607 341.232 80.3171 -10.7465" stroke="white"/>
<path d="M-67.0732 776.343C90.882 658.494 338.43 338.253 64.9801 0.0849306" stroke="white"/>
<path d="M-59.7588 794.424C94.6425 668.582 332.645 335.934 49.4465 12.084" stroke="white"/>
<path d="M-52.4453 812.506C98.1698 678.859 326.269 334.305 33.7476 25.2601" stroke="white"/>
<path d="M-45.1309 830.586C101.472 689.337 319.325 333.394 17.92 39.6199" stroke="white"/>
<path d="M-37.8174 848.667C104.552 700.027 311.831 333.232 1.99669 55.1693" stroke="white"/>
<path d="M-30.5039 866.749C107.418 710.942 303.812 333.845 -13.9866 71.9128" stroke="white"/>
<path d="M-23.1914 884.83C110.076 722.09 295.288 335.259 -29.9956 89.8513" stroke="white"/>
<path d="M-15.876 902.911C112.536 733.483 286.289 337.5 -45.9915 108.985" stroke="white"/>
<path d="M-8.5625 920.992C114.801 745.132 276.833 340.592 -61.9441 129.314" stroke="white"/>
<path d="M-1.24902 939.073C116.88 757.044 266.948 344.556 -77.8163 150.833" stroke="white"/>
<path d="M6.06543 957.154C118.783 769.23 256.66 349.414 -93.5724 173.537" stroke="white"/>
<path d="M13.3789 975.235C120.515 781.699 245.995 355.187 -109.18 197.421" stroke="white"/>
<path d="M20.6924 993.316C122.087 794.459 234.979 361.892 -124.603 222.474" stroke="white"/>
<path d="M28.0059 1011.4C123.505 807.519 223.642 369.547 -139.807 248.687" stroke="white"/>
<path d="M35.3203 1029.48C124.781 820.885 212.011 378.167 -154.758 276.047" stroke="white"/>
<path d="M42.6348 1047.56C125.923 834.564 200.114 387.767 -169.423 304.54" stroke="white"/>
<path d="M49.9473 1065.64C126.937 848.564 187.979 398.36 -183.771 334.151" stroke="white"/>
<path d="M57.2617 1083.72C127.837 862.891 175.637 409.956 -197.766 364.862" stroke="white"/>
<path d="M64.5752 1101.8C128.63 877.549 163.117 422.565 -211.378 396.654" stroke="white"/>
<path d="M71.8896 1119.88C129.328 892.545 150.45 436.196 -224.573 429.507" stroke="white"/>
<path d="M79.2021 1137.96C129.938 907.883 137.662 450.856 -237.325 463.398" stroke="white"/>
<path d="M86.5166 1156.05C130.473 923.567 124.789 466.549 -249.599 498.304" stroke="white"/>
<path d="M93.8291 1174.13C130.94 939.601 111.855 483.279 -261.37 534.199" stroke="white"/>
<path d="M101.144 1192.21C131.353 955.987 98.8973 501.048 -272.604 571.057" stroke="white"/>
<path d="M108.456 1210.29C131.719 972.729 85.9406 519.856 -283.278 608.849" stroke="white"/>
<path d="M115.771 1228.37C132.053 989.828 73.0206 539.703 -293.36 647.545" stroke="white"/>
<path d="M123.085 1246.45C132.36 1007.29 60.1628 560.587 -302.828 687.116" stroke="white"/>
<path d="M130.398 1264.53C132.654 1025.1 47.3999 582.501 -311.656 727.527" stroke="white"/>
<path d="M137.712 1282.61C132.944 1043.28 34.7616 605.441 -319.819 768.746" stroke="white"/>
<path d="M145.026 1300.69C133.242 1061.82 22.2794 629.4 -327.292 810.738" stroke="white"/>
<path d="M152.341 1318.78C133.558 1080.71 9.9816 654.369 -334.056 853.467" stroke="white"/>
<path d="M159.654 1336.86C133.901 1099.97 -2.10293 680.337 -340.088 896.896" stroke="white"/>
<path d="M166.968 1354.94C134.283 1119.58 -13.9442 707.292 -345.369 940.987" stroke="white"/>
<path d="M174.283 1373.02C134.716 1139.55 -25.5114 735.222 -349.878 985.7" stroke="white"/>
<path d="M181.595 1391.1C135.204 1159.86 -36.782 764.111 -353.602 1031" stroke="white"/>
<path d="M188.909 1409.18C135.765 1180.53 -47.7212 793.943 -356.518 1076.83" stroke="white"/>
<path d="M196.223 1427.26C136.406 1201.54 -58.3056 824.7 -358.615 1123.17" stroke="white"/>
<path d="M203.536 1445.34C137.136 1222.88 -68.507 856.363 -359.877 1169.96" stroke="white"/>
<path d="M210.851 1463.42C137.967 1244.56 -78.2984 888.913 -360.291 1217.17" stroke="white"/>
<path d="M218.165 1481.5C138.908 1266.58 -87.6547 922.326 -359.845 1264.75" stroke="white"/>
<path d="M225.477 1499.59C139.965 1288.91 -96.554 956.581 -358.534 1312.66" stroke="white"/>
<path d="M232.792 1517.67C141.154 1311.56 -104.965 991.652 -356.34 1360.84" stroke="white"/>
<path d="M240.105 1535.75C142.48 1334.52 -112.87 1027.51 -353.261 1409.27" stroke="white"/>
<path d="M247.418 1553.83C143.951 1357.79 -120.245 1064.14 -349.292 1457.88" stroke="white"/>
<path d="M254.732 1571.91C145.58 1381.35 -127.065 1101.51 -344.423 1506.64" stroke="white"/>
<path d="M262.048 1589.99C147.374 1405.19 -133.31 1139.58 -338.651 1555.49" stroke="white"/>
</svg>
