<svg width="1512" height="994" viewBox="0 0 1512 994" fill="none" xmlns="http://www.w3.org/2000/svg">
<path d="M182.919 -515.265C726.188 -343.195 1814.61 -310.361 1822.13 -1555.59" stroke="white"/>
<path d="M196.805 -466.148C746.463 -316.548 1836.2 -328.234 1797.87 -1571.77" stroke="white"/>
<path d="M210.69 -417.03C765.911 -290.127 1855.32 -346.314 1771.21 -1586.29" stroke="white"/>
<path d="M224.576 -367.912C784.524 -263.896 1871.98 -364.5 1742.2 -1599.05" stroke="white"/>
<path d="M238.462 -318.795C802.295 -237.821 1886.15 -382.692 1710.9 -1609.96" stroke="white"/>
<path d="M252.347 -269.677C819.217 -211.869 1897.84 -400.788 1677.39 -1618.93" stroke="white"/>
<path d="M266.233 -220.56C835.288 -186.003 1907.07 -418.686 1641.74 -1625.87" stroke="white"/>
<path d="M280.119 -171.442C850.502 -160.189 1913.82 -436.287 1604.02 -1630.7" stroke="white"/>
<path d="M294.005 -122.325C864.859 -134.393 1918.11 -453.488 1564.3 -1633.33" stroke="white"/>
<path d="M307.891 -73.2073C878.357 -108.578 1919.97 -470.192 1522.68 -1633.69" stroke="white"/>
<path d="M321.776 -24.0897C890.997 -82.7097 1919.4 -486.299 1479.23 -1631.7" stroke="white"/>
<path d="M335.662 25.0279C902.78 -56.7533 1916.42 -501.711 1434.04 -1627.29" stroke="white"/>
<path d="M349.547 74.1454C913.71 -30.6741 1911.07 -516.33 1387.19 -1620.4" stroke="white"/>
<path d="M363.434 123.263C923.793 -4.43734 1903.37 -530.061 1338.79 -1610.96" stroke="white"/>
<path d="M377.319 172.381C933.032 21.992 1893.35 -542.81 1288.92 -1598.91" stroke="white"/>
<path d="M391.205 221.498C941.435 48.6471 1881.05 -554.483 1237.68 -1584.19" stroke="white"/>
<path d="M405.091 270.615C949.011 75.5619 1866.51 -564.989 1185.16 -1566.76" stroke="white"/>
<path d="M418.977 319.733C955.769 102.771 1849.78 -574.237 1131.47 -1546.57" stroke="white"/>
<path d="M432.862 368.851C961.719 130.306 1830.89 -582.141 1076.71 -1523.57" stroke="white"/>
<path d="M446.749 417.968C966.875 158.199 1809.9 -588.615 1020.98 -1497.72" stroke="white"/>
<path d="M460.634 467.086C971.246 186.484 1786.86 -593.575 964.389 -1469" stroke="white"/>
<path d="M474.52 516.203C974.851 215.19 1761.82 -596.939 907.039 -1437.35" stroke="white"/>
<path d="M488.405 565.321C977.703 244.349 1734.85 -598.63 849.038 -1402.78" stroke="white"/>
<path d="M502.292 614.438C979.82 273.992 1706 -598.569 790.495 -1365.24" stroke="white"/>
<path d="M516.178 663.556C981.218 304.146 1675.34 -596.684 731.518 -1324.72" stroke="white"/>
<path d="M530.063 712.674C981.916 334.84 1642.94 -592.904 672.218 -1281.21" stroke="white"/>
<path d="M543.948 761.791C981.934 366.103 1608.86 -587.16 612.702 -1234.71" stroke="white"/>
<path d="M557.834 810.908C981.293 397.961 1573.19 -579.387 553.084 -1185.2" stroke="white"/>
<path d="M571.721 860.026C980.017 430.441 1535.98 -569.522 493.474 -1132.69" stroke="white"/>
<path d="M585.606 909.143C978.126 463.566 1497.33 -557.508 433.981 -1077.18" stroke="white"/>
<path d="M599.492 958.261C975.645 497.361 1457.3 -543.288 374.716 -1018.68" stroke="white"/>
<path d="M613.378 1007.38C972.597 531.85 1415.99 -526.809 315.789 -957.215" stroke="white"/>
<path d="M627.263 1056.5C969.009 567.054 1373.46 -508.022 257.308 -892.791" stroke="white"/>
<path d="M641.149 1105.61C964.908 602.994 1329.82 -486.882 199.386 -825.434" stroke="white"/>
<path d="M655.035 1154.73C960.32 639.69 1285.14 -463.348 142.127 -755.174" stroke="white"/>
<path d="M668.92 1203.85C955.271 677.161 1239.51 -437.379 85.6393 -682.04" stroke="white"/>
<path d="M682.807 1252.97C949.793 715.424 1193.02 -408.942 30.0306 -606.07" stroke="white"/>
<path d="M696.692 1302.08C943.913 754.496 1145.76 -378.005 -24.5975 -527.304" stroke="white"/>
<path d="M710.579 1351.2C937.662 794.391 1097.84 -344.541 -78.1398 -445.786" stroke="white"/>
<path d="M724.463 1400.32C931.067 835.124 1049.32 -308.527 -130.498 -361.565" stroke="white"/>
<path d="M738.35 1449.44C924.164 876.707 1000.32 -269.942 -181.568 -274.694" stroke="white"/>
<path d="M752.235 1498.55C916.98 919.15 950.925 -228.771 -231.255 -185.231" stroke="white"/>
<path d="M766.121 1547.67C909.549 962.467 901.231 -185.002 -279.463 -93.2337" stroke="white"/>
<path d="M780.007 1596.79C901.902 1006.66 851.333 -138.627 -326.098 1.23108" stroke="white"/>
<path d="M793.892 1645.91C894.07 1051.75 801.327 -89.6422 -371.071 98.0947" stroke="white"/>
<path d="M807.778 1695.02C886.09 1097.72 751.313 -38.0468 -414.289 197.287" stroke="white"/>
<path d="M821.665 1744.14C877.992 1144.6 701.382 16.1561 -455.67 298.733" stroke="white"/>
<path d="M835.551 1793.26C869.808 1192.38 651.632 72.9573 -495.13 402.352" stroke="white"/>
<path d="M849.437 1842.38C861.573 1241.06 602.159 132.346 -532.588 508.063" stroke="white"/>
<path d="M863.322 1891.49C853.319 1290.64 553.057 194.307 -567.968 615.782" stroke="white"/>
<path d="M877.207 1940.61C845.08 1341.13 504.421 258.821 -601.196 725.419" stroke="white"/>
<path d="M891.093 1989.73C836.89 1392.52 456.347 325.864 -632.2 836.884" stroke="white"/>
<path d="M904.979 2038.85C828.781 1444.81 408.927 395.41 -660.912 950.082" stroke="white"/>
<path d="M918.864 2087.96C820.787 1497.99 362.253 467.427 -687.269 1064.92" stroke="white"/>
<path d="M932.751 2137.08C812.942 1552.06 316.417 541.883 -711.209 1181.29" stroke="white"/>
<path d="M946.637 2186.2C805.275 1607.01 271.507 618.738 -732.677 1299.11" stroke="white"/>
<path d="M960.522 2235.32C797.822 1662.84 227.612 697.95 -751.62 1418.25" stroke="white"/>
<path d="M974.407 2284.43C790.612 1719.52 184.819 779.474 -767.989 1538.63" stroke="white"/>
</svg>
