<svg width="38" height="37" viewBox="0 0 38 37" fill="none" xmlns="http://www.w3.org/2000/svg">
<path d="M37.2324 10.2828L34.8589 9.89195C34.6239 9.0125 34.2792 8.19318 33.8092 7.42648L35.2114 5.54731C35.4699 5.20154 35.4307 4.72047 35.1174 4.42732L34.287 3.62304L33.4567 2.81124C33.2844 2.63835 33.0494 2.55567 32.8144 2.55567C32.6342 2.55567 32.4462 2.60829 32.2895 2.71352L30.3155 4.04397C29.5087 3.57794 28.6314 3.22465 27.6914 3.00667L27.2997 0.751668C27.2292 0.330734 26.8532 0.0150334 26.3989 0.0150334L25.2082 0.00751668L24.0175 0C23.5789 0 23.195 0.308184 23.1167 0.729118L22.7015 3.0217C21.785 3.2472 20.9312 3.60049 20.14 4.04397L18.213 2.69097C18.0485 2.57822 17.8683 2.5256 17.6803 2.5256C17.4453 2.5256 17.2182 2.60829 17.038 2.77365L16.1998 3.57042L15.3617 4.36719C15.0483 4.66786 15.0013 5.14141 15.2598 5.48717L16.662 7.38889C16.1998 8.14808 15.8395 8.97491 15.6123 9.84685L13.2623 10.2227C12.8237 10.2903 12.4947 10.6511 12.4947 11.0871L12.4868 12.2296L12.479 13.3722C12.479 13.7931 12.8002 14.1689 13.2388 14.2441L15.628 14.6425C15.863 15.5219 16.2312 16.3413 16.6933 17.1004L15.299 18.9571C15.0405 19.3028 15.0797 19.7839 15.393 20.077L16.2233 20.8813L17.0537 21.6856C17.226 21.8585 17.461 21.9412 17.696 21.9412C17.8762 21.9412 18.0642 21.8886 18.2208 21.7833L20.2027 20.4378C20.9703 20.8738 21.8242 21.2196 22.7015 21.4376L23.0854 23.7151C23.1559 24.136 23.5319 24.4518 23.9862 24.4518L25.1769 24.4593L26.3675 24.4668C26.8062 24.4668 27.19 24.1586 27.2684 23.7377L27.6757 21.4601C28.5922 21.2346 29.446 20.9039 30.245 20.4529L32.2034 21.7984C32.3679 21.9111 32.548 21.9637 32.736 21.9637C32.971 21.9637 33.1982 21.881 33.3784 21.7157L34.2165 20.9189L35.0547 20.1221C35.368 19.8215 35.415 19.3479 35.1565 19.0022L33.77 17.108C34.2479 16.3488 34.6004 15.5219 34.8432 14.65L37.2167 14.2817C37.6554 14.214 37.9844 13.8532 37.9844 13.4173L37.9922 12.2747L38 11.1322C37.9844 10.7188 37.6632 10.358 37.2324 10.2828ZM27.0255 19.7238C26.4224 19.8591 25.8192 19.9192 25.2239 19.9192C21.5735 19.9192 18.2757 17.5139 17.4218 13.951C16.4348 9.81678 19.1217 5.69012 23.4379 4.73551C24.041 4.60021 24.6442 4.54007 25.2395 4.54007C28.8899 4.54007 32.1877 6.94541 33.0415 10.5083C34.0285 14.65 31.3339 18.7767 27.0255 19.7238Z" fill="#103ACC"/>
<path d="M29.8143 14.8755C28.3965 14.5297 27.245 13.7555 27.245 13.7555L26.3441 16.4765L26.1718 16.9877V16.9802L26.023 17.4161L25.5529 16.1308C26.7515 14.5297 25.2396 14.5899 25.2396 14.5899C25.2396 14.5899 23.7278 14.5297 24.9263 16.1308L24.4484 17.4312L24.2996 16.9952L23.2343 13.763C23.2343 13.763 22.0828 14.5372 20.6649 14.883C19.9599 15.0559 19.7014 15.6347 19.6231 16.1759C20.8921 17.8521 22.9366 18.8969 25.224 18.8969C25.7488 18.8969 26.2736 18.8368 26.7828 18.724C28.4356 18.3557 29.8691 17.4462 30.8483 16.1383C30.7621 15.6046 30.5036 15.0409 29.8143 14.8755Z" fill="#103ACC"/>
<path d="M12.8158 26.5038C13.0352 26.3535 13.1057 26.0754 12.9882 25.8424L12.3536 24.5796C12.714 24.1661 13.0117 23.7076 13.2467 23.2115H14.7037C14.9778 23.2115 15.205 23.0236 15.252 22.768L15.3695 22.084L15.487 21.4C15.5183 21.152 15.3617 20.9039 15.111 20.8212L13.7323 20.3627C13.6853 19.814 13.56 19.2878 13.3563 18.7917L14.3903 17.7995C14.5783 17.6116 14.6018 17.326 14.453 17.123L14.0378 16.5593L13.6227 15.9955C13.5365 15.8753 13.4033 15.8001 13.2623 15.7851C13.1527 15.77 13.0352 15.7851 12.9333 15.8302L11.6173 16.439C11.1865 16.0857 10.693 15.7926 10.1525 15.5671V14.184C10.1525 13.9209 9.95665 13.7029 9.69031 13.6578L8.97748 13.5451L8.26464 13.4323C8.00614 13.3948 7.73981 13.5376 7.65364 13.7856L7.16797 15.1161C6.59614 15.1612 6.04781 15.2965 5.53081 15.4844L4.5203 14.4922C4.43414 14.4095 4.3323 14.3644 4.22264 14.3419C4.08164 14.3193 3.9328 14.3494 3.8153 14.4321L3.2278 14.8304L2.6403 15.2288C2.42097 15.3792 2.35047 15.6573 2.46797 15.8903L3.1103 17.1606C2.7578 17.574 2.46014 18.0325 2.23297 18.5286H0.791633C0.517466 18.5286 0.290299 18.7166 0.243299 18.9721L0.125798 19.6561L0.00829825 20.3402C-0.0387018 20.5957 0.117965 20.8438 0.376465 20.934L1.76297 21.4C1.80997 21.9487 1.95097 22.4749 2.1468 22.971L1.12847 23.9557C0.940466 24.1436 0.916966 24.4292 1.0658 24.6322L1.48097 25.1959L1.89613 25.7597C1.9823 25.88 2.11547 25.9551 2.25647 25.9702C2.36613 25.9852 2.48364 25.9701 2.58547 25.9251L3.9093 25.3087C4.32447 25.6394 4.79447 25.9251 5.30364 26.143V27.5411C5.30364 27.8042 5.49947 28.0222 5.76581 28.0673L6.47864 28.1801L7.19147 28.2928C7.44998 28.3304 7.71631 28.1876 7.80248 27.9395L8.28031 26.6166C8.85214 26.5715 9.40048 26.4512 9.91748 26.2558L10.9515 27.248C11.0376 27.3307 11.1395 27.3758 11.2491 27.3983C11.3901 27.4209 11.539 27.3908 11.6565 27.3081L12.244 26.9097L12.8158 26.5038ZM10.8888 21.1144C10.7478 22.7831 9.22031 24.0233 7.48131 23.888C5.74231 23.7527 4.4498 22.287 4.5908 20.6183C4.7318 18.9496 6.25931 17.7093 7.99831 17.8446C9.73731 17.9799 11.0298 19.4457 10.8888 21.1144Z" fill="#103ACC"/>
<path d="M23.9002 31.0514L22.827 30.5628C22.8427 30.1268 22.7878 29.6909 22.6703 29.2549L23.5947 28.5408C23.767 28.4055 23.814 28.18 23.7043 27.9921L23.4145 27.5035L23.1247 27.0149C23.015 26.8421 22.78 26.7594 22.5842 26.827L21.464 27.2104C21.1428 26.8872 20.7825 26.6166 20.3908 26.3986L20.5162 25.2636C20.5397 25.0531 20.3987 24.8577 20.195 24.805L19.631 24.6547L19.067 24.5044C18.9495 24.4743 18.8242 24.4893 18.7223 24.542C18.644 24.5871 18.5813 24.6472 18.5343 24.7299L18.0252 25.7597C17.563 25.7446 17.093 25.7972 16.6387 25.925L15.9023 25.0456C15.7613 24.8802 15.5263 24.8351 15.3305 24.9403L14.8213 25.2185L14.3121 25.4966C14.1241 25.6018 14.038 25.8198 14.1085 26.0152L14.508 27.0976C14.1711 27.4058 13.8891 27.7591 13.6698 28.1274L12.5026 27.9921C12.4086 27.9846 12.3146 27.9996 12.2363 28.0447C12.1345 28.0973 12.0561 28.1875 12.0248 28.3003L11.8681 28.8415L11.7115 29.3827C11.6488 29.5856 11.7506 29.7961 11.9543 29.8863L13.0353 30.3749C13.0275 30.8109 13.0823 31.2468 13.2076 31.6753L12.2911 32.3818C12.1188 32.5171 12.0718 32.7426 12.1815 32.9306L12.4713 33.4191L12.7611 33.9077C12.8708 34.0881 13.098 34.1783 13.3095 34.1032L14.4375 33.7198C14.7586 34.043 15.1268 34.3136 15.5107 34.5241L15.3853 35.6441C15.3618 35.8546 15.5028 36.05 15.7065 36.1026L16.2705 36.2529L16.8345 36.4033C16.952 36.4333 17.0773 36.4183 17.1792 36.3657C17.2575 36.3206 17.3202 36.2605 17.3672 36.1778L17.8763 35.1405C18.315 35.148 18.7693 35.0954 19.2002 34.9901L19.9443 35.8771C20.0853 36.0425 20.3203 36.0876 20.5162 35.9823L21.0253 35.7042L21.5345 35.4261C21.7225 35.3209 21.8087 35.1029 21.7382 34.9074L21.3387 33.8326C21.6755 33.5244 21.9575 33.1786 22.1847 32.8028L23.3675 32.923C23.4615 32.9306 23.5555 32.9155 23.6338 32.8704C23.7357 32.8178 23.814 32.7276 23.8453 32.6149L24.002 32.0737L24.1587 31.5325C24.1978 31.3596 24.096 31.1416 23.9002 31.0514ZM19.3647 32.5021C18.1897 33.2613 16.5917 32.9681 15.7927 31.8406C15.0015 30.7131 15.307 29.1797 16.482 28.413C17.657 27.6463 19.255 27.947 20.054 29.0745C20.853 30.202 20.5397 31.7354 19.3647 32.5021Z" fill="#103ACC"/>
<path d="M22.8349 11.944C22.9603 12.7107 23.5713 13.6803 24.5818 14.0186C24.9969 14.1614 25.4513 14.1614 25.8664 14.0186C26.8613 13.6728 27.4958 12.7031 27.6211 11.944C27.7543 11.9364 27.9344 11.756 28.1224 11.1096C28.3809 10.2302 28.1068 10.1024 27.8718 10.1249C27.9188 10.0047 27.9501 9.88439 27.9736 9.76412C28.3653 7.48657 27.1981 7.4114 27.1981 7.4114C27.1981 7.4114 27.0023 7.0506 26.4931 6.78752C26.1484 6.59209 25.6784 6.44175 25.0518 6.49437C24.8481 6.50189 24.6601 6.53947 24.4799 6.5996C24.2528 6.67477 24.0413 6.78 23.8454 6.90779C23.6104 7.0506 23.3911 7.22349 23.1953 7.42644C22.8898 7.7271 22.6078 8.12549 22.4903 8.61407C22.3884 8.98239 22.4119 9.35822 22.4981 9.77164C22.5216 9.89191 22.5529 10.0122 22.5999 10.1324C22.3649 10.1099 22.0908 10.2377 22.3493 11.1171C22.5216 11.7485 22.7018 11.9289 22.8349 11.944Z" fill="#103ACC"/>
</svg>
